<!DOCTYPE svg PUBLIC "-//W3C//DTD SVG 20010904//EN" "http://www.w3.org/TR/2001/REC-SVG-20010904/DTD/svg10.dtd">
<svg version="1.0" xmlns="http://www.w3.org/2000/svg" width="1200px" height="1200px" viewBox="0 0 12000 12000" preserveAspectRatio="xMidYMid meet">
<g id="layer101" fill="#060504" stroke="none">
<path d="M9840 8014 c-701 -33 -1619 -137 -2430 -274 -349 -59 -480 -81 -520 -90 -25 -5 -108 -21 -185 -35 -77 -14 -160 -31 -185 -36 -25 -6 -171 -37 -325 -69 -154 -33 -320 -68 -370 -80 -49 -11 -272 -56 -495 -101 -590 -117 -759 -163 -1030 -281 -69 -30 -165 -65 -215 -77 -49 -13 -196 -52 -325 -87 l-236 -63 -614 -5 c-874 -8 -2060 -8 -2161 0 l-87 7 -6 91 c-10 134 -18 150 -79 180 -79 39 -180 52 -280 37 -98 -15 -177 -53 -187 -91 -13 -49 -25 -470 -25 -865 0 -410 13 -620 41 -677 10 -18 32 -33 71 -49 80 -30 284 -39 366 -15 78 23 95 49 103 162 3 49 7 97 8 107 3 21 -11 21 506 12 162 -2 525 -7 805 -10 281 -3 726 -8 990 -11 l480 -6 100 -38 c55 -20 197 -73 315 -117 118 -45 262 -102 320 -128 253 -112 459 -186 715 -256 1008 -277 2721 -494 4335 -549 959 -32 1805 7 2219 103 91 21 96 24 155 82 177 173 269 564 302 1290 9 193 -17 622 -51 865 -64 447 -171 755 -304 871 -25 23 -82 58 -126 79 -93 44 -222 70 -565 111 -76 9 -892 19 -1030 13z"/>
</g>
<g id="layer102" fill="#493a26" stroke="none">
<path d="M9840 8014 c-701 -33 -1619 -137 -2430 -274 -349 -59 -480 -81 -520 -90 -25 -5 -108 -21 -185 -35 -77 -14 -160 -31 -185 -36 -25 -6 -171 -37 -325 -69 -154 -33 -320 -68 -370 -80 -49 -11 -272 -56 -495 -101 -590 -117 -759 -163 -1030 -281 -69 -30 -165 -65 -215 -77 -49 -13 -196 -52 -325 -87 l-236 -63 -614 -5 c-874 -8 -2060 -8 -2161 0 l-87 7 -6 91 c-10 134 -18 150 -79 180 -79 39 -180 52 -280 37 -98 -15 -177 -53 -187 -91 -13 -49 -25 -470 -25 -865 0 -410 13 -620 41 -677 10 -18 32 -33 71 -49 80 -30 284 -39 366 -15 78 23 95 49 103 162 3 49 7 97 8 107 3 21 -11 21 506 12 162 -2 525 -7 805 -10 281 -3 726 -8 990 -11 l480 -6 100 -38 c55 -20 197 -73 315 -117 118 -45 262 -102 320 -128 253 -112 459 -186 715 -256 1008 -277 2721 -494 4335 -549 959 -32 1805 7 2219 103 91 21 96 24 155 82 177 173 269 564 302 1290 9 193 -17 622 -51 865 -64 447 -171 755 -304 871 -25 23 -82 58 -126 79 -93 44 -222 70 -565 111 -76 9 -892 19 -1030 13z m1411 -873 c33 -32 39 -45 39 -79 0 -58 -13 -86 -64 -137 -44 -44 -47 -45 -107 -45 -33 0 -59 3 -57 8 2 4 21 33 43 66 35 52 40 67 44 130 4 71 16 95 50 96 7 0 31 -17 52 -39z m-1231 -19 c0 -5 6 -9 13 -9 57 -3 279 -78 330 -112 43 -28 117 -125 148 -195 44 -101 64 -461 34 -629 -15 -87 -53 -169 -93 -206 -23 -21 -32 -23 -89 -18 -90 9 -134 34 -276 160 -43 38 -80 68 -82 65 -8 -8 45 -140 90 -223 43 -80 54 -92 158 -173 152 -119 167 -135 167 -183 0 -36 -4 -42 -47 -69 -53 -34 -93 -38 -148 -14 -43 17 -93 12 -132 -13 -50 -33 -41 12 17 85 21 27 52 54 69 62 17 7 31 17 31 23 0 12 -19 44 -120 202 -42 66 -94 161 -115 210 -21 50 -49 103 -63 120 -20 24 -23 37 -20 75 6 63 32 100 70 100 24 0 47 -18 131 -106 113 -119 276 -254 305 -254 14 0 25 14 38 48 17 41 19 75 19 267 0 250 -11 329 -58 424 -58 118 -139 193 -351 324 -43 27 -59 47 -36 47 6 0 10 -4 10 -8z m-2752 -15 c30 -36 35 -106 23 -365 -6 -141 -13 -455 -15 -697 -4 -458 -3 -480 37 -514 53 -43 -22 -141 -109 -141 -65 0 -257 68 -262 93 -4 21 23 25 133 17 54 -5 105 -5 113 -2 11 4 13 17 8 56 -3 28 -6 114 -6 191 l0 141 -110 23 c-60 13 -121 30 -136 37 -14 8 -28 14 -30 14 -2 0 -4 -83 -4 -185 0 -208 -7 -240 -66 -289 -19 -16 -37 -27 -39 -25 -2 3 1 22 6 44 6 22 13 141 15 265 6 266 6 270 39 270 13 0 27 -4 30 -10 3 -5 23 -10 43 -10 20 0 81 -9 135 -21 54 -12 101 -18 105 -15 3 4 8 218 10 477 l4 470 -28 -6 c-16 -4 -54 -16 -85 -26 -110 -38 -106 -24 31 112 106 106 135 124 158 96z m1022 -6 c0 -5 -46 -37 -101 -71 -260 -160 -320 -308 -323 -790 -1 -214 2 -262 22 -384 26 -151 24 -202 -8 -242 -22 -25 -110 -64 -147 -64 -40 0 -52 17 -24 36 28 20 52 107 54 201 1 43 -4 192 -12 331 -16 294 -7 443 35 582 32 106 69 164 149 238 70 63 141 103 260 144 90 31 95 32 95 19z m757 -21 c45 -27 66 -64 78 -139 l11 -65 59 3 c96 4 265 61 265 90 0 4 -11 14 -25 21 -34 18 -31 36 6 44 91 18 149 -3 149 -54 0 -24 -10 -37 -47 -65 -80 -58 -259 -119 -373 -127 l-45 -3 -22 -210 c-20 -191 -21 -229 -12 -415 10 -200 24 -299 53 -376 26 -71 27 -93 7 -139 -35 -80 -127 -99 -213 -45 -54 34 -61 57 -20 65 15 3 39 9 55 13 l27 7 5 341 c4 256 10 381 25 500 11 87 20 180 20 206 l0 48 -107 0 c-128 0 -209 17 -301 64 -122 62 -136 98 -67 169 43 44 86 68 135 74 19 3 37 7 39 9 2 2 63 4 135 4 112 0 136 -3 163 -20z m-4031 -68 c23 -35 56 -79 75 -98 18 -18 30 -37 26 -40 -3 -4 -45 10 -93 31 -83 35 -90 36 -150 28 -36 -5 -70 -6 -79 -1 -25 15 -17 54 17 89 41 40 84 59 128 56 31 -2 40 -9 76 -65z m816 41 c32 -29 23 -69 -27 -118 -85 -85 -169 -125 -295 -140 -30 -3 -72 -8 -94 -11 -70 -11 -35 17 54 42 73 21 91 31 128 69 40 41 54 75 32 75 -22 0 -8 17 24 28 18 7 53 26 77 42 50 34 75 37 101 13z m369 -38 c28 -82 38 -210 45 -585 3 -195 8 -357 11 -360 2 -2 13 1 23 8 30 18 79 14 107 -8 14 -11 33 -20 43 -20 18 0 51 32 69 68 13 25 33 28 50 8 18 -21 41 -222 46 -396 3 -85 7 -171 11 -190 5 -29 1 -39 -20 -59 -31 -29 -106 -44 -155 -31 -45 12 -153 72 -158 87 -9 25 98 28 210 7 l37 -7 -1 149 c-1 82 -4 178 -8 213 l-6 65 -70 13 c-38 7 -79 17 -90 22 -40 19 -85 30 -90 21 -3 -4 -4 -84 -2 -177 2 -143 -1 -173 -15 -199 -28 -51 -68 -94 -89 -94 -10 0 -19 1 -19 3 0 1 10 31 21 67 19 58 22 95 27 340 5 317 -12 752 -34 819 -8 25 -24 56 -37 69 -17 19 -22 34 -21 76 2 56 13 87 47 124 30 33 48 24 68 -33z m407 -276 c3 -23 9 -27 49 -33 25 -3 94 -6 153 -6 83 0 110 -3 120 -15 18 -22 6 -42 -42 -66 -36 -19 -48 -20 -87 -11 -26 6 -48 9 -50 6 -2 -2 20 -30 50 -62 49 -52 99 -116 138 -177 20 -31 7 -72 -32 -96 -27 -17 -43 -20 -107 -15 -98 7 -138 19 -190 57 -41 30 -42 33 -25 45 26 19 72 17 124 -6 50 -23 104 -26 120 -6 13 16 -7 53 -97 187 -47 68 -118 146 -127 137 -17 -18 -75 -225 -76 -269 -1 -62 -11 -99 -23 -80 -4 6 -12 56 -18 111 -10 85 -9 108 7 172 9 40 26 92 38 116 17 37 24 43 46 40 20 -2 27 -9 29 -29z m4609 -83 c8 -33 18 -92 23 -131 22 -186 33 -270 50 -385 19 -122 28 -228 34 -400 2 -46 8 -86 13 -87 25 -9 44 -30 52 -59 14 -49 -16 -89 -94 -125 -77 -36 -107 -33 -154 15 l-32 33 26 17 c15 10 37 39 48 64 21 45 22 59 20 332 -1 157 -7 357 -13 445 -21 302 -22 324 -15 352 6 25 8 26 17 9 6 -10 17 -46 25 -80z m-6095 70 c46 -20 200 -46 269 -46 47 0 59 4 78 26 28 32 61 29 80 -10 15 -31 18 -87 22 -435 l3 -234 -26 -22 -25 -22 48 -51 c40 -41 49 -57 49 -85 0 -56 -9 -68 -74 -98 l-61 -27 60 -28 c57 -27 68 -29 209 -30 145 -1 165 -6 166 -36 0 -12 -44 -38 -98 -58 l-49 -19 -47 25 c-25 13 -81 31 -124 38 -43 8 -93 21 -110 30 -41 21 -40 13 1 -38 69 -84 107 -150 107 -184 0 -30 -5 -35 -46 -54 -51 -22 -121 -21 -149 2 -13 11 -12 16 7 43 35 49 29 92 -22 177 -44 73 -134 170 -157 170 -22 0 -35 37 -22 63 11 22 48 56 61 57 4 0 36 -25 70 -56 35 -31 78 -64 96 -72 40 -19 46 -13 56 55 6 47 -18 116 -53 147 -9 8 -60 22 -115 31 -55 9 -113 23 -130 32 -72 37 -105 75 -75 85 6 2 43 -4 83 -13 92 -22 239 -43 257 -37 11 4 14 49 16 249 2 248 -4 302 -35 314 -9 4 -60 6 -113 5 -53 0 -136 4 -184 10 -48 6 -89 9 -92 6 -2 -2 -5 -102 -7 -223 -3 -229 -13 -293 -46 -293 -15 0 -18 20 -23 167 -10 238 -8 321 6 378 19 72 65 92 139 61z m133 -215 c31 -12 60 -21 64 -21 17 0 32 -30 26 -50 -10 -31 -51 -54 -107 -59 -29 -3 28 -91 58 -91 22 0 76 -57 79 -83 6 -55 -84 -74 -180 -37 l-29 11 26 22 c14 12 34 35 43 50 17 27 17 29 -4 57 -32 45 -37 82 -12 104 12 11 21 24 21 30 0 7 -25 36 -55 66 -55 55 -67 90 -14 46 16 -13 54 -34 84 -45z m4148 -297 c89 -30 122 -90 75 -134 -25 -23 -135 -60 -179 -60 -33 0 -40 25 -10 33 10 2 26 16 36 30 19 30 10 58 -32 94 -57 47 12 71 110 37z m-4716 -19 c12 -8 29 -36 38 -62 35 -99 84 -189 121 -227 81 -80 204 -145 275 -146 36 0 59 -14 59 -37 0 -31 -113 -54 -145 -29 -17 13 -18 17 -6 25 11 7 -1 17 -47 40 -54 27 -242 172 -250 193 -7 16 -30 7 -48 -19 -27 -38 -53 -63 -64 -63 -5 0 -8 26 -8 58 1 31 -2 95 -6 142 -8 79 -7 87 14 113 25 31 37 33 67 12z m369 -141 c6 -8 8 -29 5 -51 -4 -21 -3 -58 1 -82 4 -24 6 -47 3 -51 -3 -5 0 -11 5 -13 6 -3 6 -5 1 -4 -5 1 -20 18 -33 37 -30 44 -51 48 -81 16 -24 -25 -57 -35 -57 -17 0 26 63 158 82 173 25 19 56 15 74 -8z m1375 -237 c93 -62 -8 -143 -111 -89 -49 27 -47 39 5 47 45 6 46 7 40 36 -6 24 -3 29 13 29 10 0 34 -10 53 -23z m-1662 -99 c268 -190 317 -233 307 -272 -5 -21 -18 -29 -72 -46 -66 -20 -124 -26 -124 -13 0 4 7 27 16 50 15 39 15 44 0 68 -9 14 -20 25 -25 25 -7 0 -173 183 -224 247 -34 42 3 24 122 -59z m2278 61 c41 -15 83 -59 83 -86 0 -18 -9 -28 -35 -39 -40 -16 -93 -18 -115 -4 -13 9 -10 15 18 39 33 28 33 29 18 59 -24 47 -20 51 31 31z"/>
<path d="M8760 6976 c-80 -31 -110 -47 -110 -62 0 -8 23 -25 53 -39 47 -22 65 -25 184 -25 152 0 165 3 158 36 -3 13 -7 35 -10 48 -7 35 -68 56 -163 56 -42 -1 -93 -7 -112 -14z"/>
</g>
<g id="layer103" fill="#63605b" stroke="none">
<path d="M9840 8014 c-701 -33 -1619 -137 -2430 -274 -349 -59 -480 -81 -520 -90 -25 -5 -108 -21 -185 -35 -77 -14 -160 -31 -185 -36 -25 -6 -171 -37 -325 -69 -154 -33 -320 -68 -370 -80 -49 -11 -272 -56 -495 -101 -590 -117 -759 -163 -1030 -281 -69 -30 -165 -65 -215 -77 -49 -13 -196 -52 -325 -87 l-236 -63 -614 -5 c-874 -8 -2060 -8 -2161 0 l-87 7 -6 91 c-10 134 -18 150 -79 180 -79 39 -180 52 -280 37 -98 -15 -177 -53 -187 -91 -13 -49 -25 -470 -25 -865 0 -410 13 -620 41 -677 10 -18 32 -33 71 -49 80 -30 284 -39 366 -15 78 23 95 49 103 162 3 49 7 97 8 107 3 21 -11 21 506 12 162 -2 525 -7 805 -10 281 -3 726 -8 990 -11 l480 -6 100 -38 c55 -20 197 -73 315 -117 118 -45 262 -102 320 -128 253 -112 459 -186 715 -256 1008 -277 2721 -494 4335 -549 959 -32 1805 7 2219 103 91 21 96 24 155 82 177 173 269 564 302 1290 9 193 -17 622 -51 865 -64 447 -171 755 -304 871 -25 23 -82 58 -126 79 -93 44 -222 70 -565 111 -76 9 -892 19 -1030 13z m1414 -874 c31 -34 36 -47 36 -89 0 -37 -6 -57 -29 -88 -46 -64 -80 -83 -146 -83 -31 0 -55 3 -53 8 2 4 21 33 43 66 35 52 40 66 43 130 6 106 43 126 106 56z m-1169 -35 c249 -73 289 -93 356 -182 90 -120 118 -242 119 -524 0 -177 -19 -289 -62 -370 -38 -70 -65 -84 -144 -75 -84 10 -128 36 -268 160 -79 70 -79 71 -73 38 21 -102 119 -278 181 -325 216 -161 226 -171 226 -229 0 -35 -4 -41 -47 -68 -53 -34 -93 -38 -148 -14 -43 17 -93 12 -132 -13 -50 -33 -41 12 17 85 21 27 52 54 69 62 17 7 31 17 31 23 0 12 -19 44 -120 202 -42 66 -94 161 -115 210 -21 50 -49 103 -63 120 -47 56 -12 175 51 175 27 0 46 -15 132 -106 110 -117 274 -254 303 -254 14 0 25 14 38 48 17 41 19 75 19 267 0 250 -11 329 -58 424 -58 118 -139 193 -351 324 -42 26 -64 56 -33 44 6 -2 39 -12 72 -22z m-2810 -9 c24 -36 29 -136 16 -362 -8 -165 -19 -1073 -12 -1146 0 -9 12 -30 26 -46 40 -48 29 -90 -35 -135 -45 -31 -104 -23 -260 36 -65 25 -87 50 -53 59 10 3 63 2 118 -2 54 -5 105 -5 113 -2 11 4 13 17 8 56 -3 28 -6 114 -6 191 l0 141 -110 23 c-60 13 -121 30 -136 37 -14 8 -28 14 -30 14 -2 0 -4 -85 -4 -189 0 -129 -4 -198 -12 -218 -13 -29 -85 -100 -93 -92 -2 3 1 22 6 44 6 22 13 141 15 265 3 124 7 235 9 246 6 26 40 37 58 20 7 -7 39 -16 72 -19 33 -4 93 -13 133 -20 52 -10 75 -11 80 -3 3 6 8 219 10 474 l4 463 -28 -7 c-16 -3 -54 -15 -85 -25 -109 -37 -106 -25 29 111 114 116 139 129 167 86z m1015 4 c0 -5 -45 -37 -100 -70 -174 -107 -262 -225 -295 -395 -41 -216 -43 -547 -5 -780 23 -140 21 -206 -8 -238 -24 -28 -111 -67 -149 -67 -40 0 -52 17 -24 36 28 20 52 107 54 201 1 43 -4 192 -12 331 -16 294 -7 443 35 582 32 106 69 164 149 238 70 63 141 103 260 144 91 31 95 32 95 18z m753 -18 c47 -27 75 -75 83 -143 l7 -59 58 0 c73 0 239 51 256 78 10 17 8 21 -13 32 -50 28 -15 50 79 50 49 0 77 -22 77 -61 0 -23 -10 -36 -47 -64 -80 -58 -259 -119 -373 -127 -45 -3 -45 -3 -48 -43 -1 -22 -11 -120 -22 -218 -18 -156 -19 -200 -10 -365 11 -211 21 -275 56 -380 27 -78 26 -115 -4 -160 -39 -59 -129 -69 -204 -22 -54 34 -61 57 -20 65 15 3 39 9 55 13 l27 7 5 341 c4 256 10 381 25 500 11 87 20 180 20 206 l0 48 -107 0 c-128 0 -209 17 -301 64 -83 42 -117 76 -108 109 8 32 68 93 116 117 80 41 331 49 393 12z m-4023 -74 c25 -37 59 -81 75 -98 16 -16 26 -33 22 -36 -3 -4 -45 10 -93 31 -83 35 -90 36 -150 28 -71 -10 -94 -3 -94 30 1 52 92 120 154 115 38 -3 44 -8 86 -70z m820 43 c21 -39 11 -70 -35 -116 -85 -85 -169 -125 -295 -140 -30 -3 -72 -8 -94 -11 -70 -11 -35 17 54 42 73 21 91 31 128 69 40 41 54 75 32 75 -5 0 -10 5 -10 10 0 6 6 10 13 10 7 0 42 18 78 40 71 44 113 50 129 21z m361 -31 c28 -75 38 -207 45 -585 3 -198 8 -362 11 -365 2 -2 13 1 23 8 27 16 85 15 99 -2 34 -41 86 -24 117 36 16 31 35 36 53 14 17 -20 40 -214 46 -379 2 -78 7 -164 11 -192 5 -45 3 -53 -20 -74 -31 -29 -106 -44 -155 -31 -45 12 -153 72 -159 88 -8 24 128 28 221 6 l27 -6 -1 148 c-1 82 -4 178 -8 213 l-6 65 -75 14 c-41 7 -79 17 -85 21 -12 10 -72 24 -82 19 -5 -2 -8 -79 -8 -173 0 -170 0 -170 -29 -220 -33 -55 -52 -74 -78 -75 -10 0 -18 1 -18 3 0 1 10 31 21 67 19 58 22 95 27 340 5 317 -12 752 -34 819 -8 25 -24 56 -37 69 -17 19 -22 34 -21 76 2 56 13 87 47 124 30 32 49 24 68 -28z m407 -275 c2 -11 8 -24 13 -29 5 -5 77 -12 161 -15 l153 -6 0 -25 c0 -40 -65 -72 -135 -65 l-55 6 41 -38 c23 -21 59 -65 81 -98 22 -33 50 -69 62 -79 38 -35 23 -94 -31 -122 -25 -13 -48 -15 -103 -10 -94 8 -134 20 -184 57 -35 25 -40 33 -31 45 18 20 84 17 130 -6 46 -23 102 -26 119 -6 9 11 5 24 -17 62 -83 141 -173 254 -202 254 -5 0 -24 -48 -44 -108 -27 -80 -36 -124 -36 -174 0 -57 -11 -90 -25 -76 -2 2 -9 54 -16 115 -11 99 -10 119 6 185 9 40 26 92 38 116 17 36 24 43 46 40 17 -2 27 -10 29 -23z m4608 -81 c9 -38 19 -100 24 -139 9 -79 22 -178 51 -380 21 -146 42 -442 33 -457 -3 -5 9 -22 26 -38 72 -67 53 -131 -55 -181 -77 -36 -107 -33 -154 15 l-32 33 26 17 c15 10 37 39 48 64 21 45 22 59 20 332 -2 251 -6 356 -30 682 -6 88 3 162 18 136 5 -9 16 -47 25 -84z m-6088 62 c61 -22 201 -46 265 -46 49 0 59 3 73 25 21 32 58 33 79 2 20 -30 24 -89 29 -406 l5 -264 -28 -27 -27 -28 48 -50 c39 -41 48 -57 48 -85 0 -56 -9 -68 -74 -97 l-61 -28 49 -21 c86 -37 132 -44 252 -38 106 6 114 5 124 -14 6 -10 8 -24 5 -29 -8 -13 -56 -38 -105 -55 -35 -12 -42 -12 -84 11 -25 13 -81 31 -124 38 -43 8 -93 21 -110 30 -18 9 -32 14 -32 10 0 -3 17 -27 39 -53 64 -76 101 -142 101 -179 0 -30 -4 -35 -46 -54 -51 -22 -121 -21 -149 2 -13 11 -12 16 7 43 35 49 29 92 -22 177 -44 73 -134 170 -157 170 -7 0 -17 9 -23 19 -13 25 4 65 37 86 29 19 44 12 111 -53 58 -56 109 -83 122 -62 4 7 10 32 14 57 6 47 -18 116 -53 147 -9 8 -60 22 -115 31 -98 16 -136 30 -188 68 -54 40 -28 67 39 43 53 -19 281 -51 291 -42 11 12 12 487 1 523 -5 17 -18 34 -27 38 -9 4 -60 6 -113 5 -53 0 -136 4 -184 10 -48 6 -90 9 -92 6 -3 -2 -4 -93 -4 -201 1 -156 -2 -209 -15 -256 -12 -43 -21 -59 -34 -59 -15 0 -18 19 -23 167 -10 234 -9 317 4 371 19 79 61 98 147 68z m36 -165 c15 -17 50 -33 159 -73 16 -7 27 -18 27 -30 0 -22 -42 -67 -65 -69 -8 -1 -19 -3 -25 -4 -5 -1 -14 -3 -20 -4 -18 -2 -10 -37 13 -58 12 -11 36 -27 52 -36 68 -34 92 -95 49 -124 -27 -17 -104 -14 -159 7 l-29 11 26 22 c14 12 34 34 43 49 16 26 16 29 -4 57 -32 45 -37 83 -12 105 12 11 21 24 21 30 0 7 -25 36 -55 66 -30 30 -55 58 -55 62 0 14 16 9 34 -11z m4239 -347 c89 -30 122 -90 75 -134 -25 -23 -135 -60 -179 -60 -33 0 -40 25 -10 33 10 2 26 16 36 30 19 30 10 58 -32 94 -57 47 12 71 110 37z m-4706 -26 c11 -13 30 -52 42 -88 37 -103 71 -158 135 -217 75 -67 162 -111 241 -121 51 -6 60 -10 63 -29 4 -26 -17 -39 -78 -48 -33 -5 -50 -2 -65 9 -17 13 -18 17 -6 25 11 7 -1 17 -46 40 -33 16 -107 69 -164 116 -100 82 -119 94 -119 77 0 -13 -66 -82 -78 -82 -7 0 -11 23 -10 58 1 31 -2 95 -6 142 -8 79 -7 87 14 113 26 33 50 34 77 5z m362 -124 c2 -2 5 -43 5 -91 1 -49 6 -96 10 -107 15 -31 -10 -15 -36 24 -30 44 -51 48 -81 16 -24 -25 -57 -35 -57 -17 0 26 63 158 82 173 20 16 62 17 77 2z m1394 -262 c40 -35 3 -92 -61 -92 -42 0 -107 30 -107 50 0 7 13 14 29 16 47 5 58 12 51 34 -10 33 3 41 38 24 18 -9 40 -23 50 -32z m-1638 -117 c253 -181 279 -205 262 -249 -11 -28 -197 -73 -197 -47 0 5 7 25 15 44 21 51 20 55 -24 96 -50 46 -241 263 -241 274 0 12 25 -4 185 -118z m2232 94 c41 -15 83 -59 83 -86 0 -18 -9 -28 -35 -39 -40 -16 -93 -18 -115 -4 -13 9 -10 15 18 39 33 28 33 29 18 59 -24 47 -20 51 31 31z"/>
<path d="M8760 6976 c-117 -45 -126 -54 -79 -88 34 -25 114 -38 235 -38 122 0 136 4 129 36 -3 13 -7 35 -10 48 -7 35 -68 56 -163 56 -42 -1 -93 -7 -112 -14z"/>
</g>
<g id="layer104" fill="#90744c" stroke="none">
<path d="M9840 8014 c-701 -33 -1619 -137 -2430 -274 -349 -59 -480 -81 -520 -90 -25 -5 -108 -21 -185 -35 -77 -14 -160 -31 -185 -36 -25 -6 -171 -37 -325 -69 -154 -33 -320 -68 -370 -80 -49 -11 -272 -56 -495 -101 -590 -117 -759 -163 -1030 -281 -69 -30 -165 -65 -215 -77 -49 -13 -196 -52 -325 -87 l-236 -63 -614 -5 c-874 -8 -2060 -8 -2161 0 l-87 7 -6 91 c-10 134 -18 150 -79 180 -79 39 -180 52 -280 37 -98 -15 -177 -53 -187 -91 -13 -49 -25 -470 -25 -865 0 -410 13 -620 41 -677 10 -18 32 -33 71 -49 80 -30 284 -39 366 -15 78 23 95 49 103 162 3 49 7 97 8 107 3 21 -11 21 506 12 162 -2 525 -7 805 -10 281 -3 726 -8 990 -11 l480 -6 100 -38 c55 -20 197 -73 315 -117 118 -45 262 -102 320 -128 253 -112 459 -186 715 -256 1008 -277 2721 -494 4335 -549 959 -32 1805 7 2219 103 91 21 96 24 155 82 177 173 269 564 302 1290 9 193 -17 622 -51 865 -64 447 -171 755 -304 871 -25 23 -82 58 -126 79 -93 44 -222 70 -565 111 -76 9 -892 19 -1030 13z m1423 -877 c43 -53 44 -117 2 -177 -42 -61 -78 -80 -148 -80 -32 0 -57 3 -55 8 2 4 21 33 43 66 35 52 40 66 43 130 2 39 9 77 15 84 19 24 68 10 100 -31z m-3986 -34 c21 -32 21 -63 9 -946 -8 -574 -7 -607 30 -621 20 -8 17 -66 -4 -91 -61 -73 -113 -73 -302 -2 -65 25 -87 50 -53 59 10 3 63 2 118 -2 54 -5 105 -5 113 -2 11 4 13 17 8 56 -3 28 -6 114 -6 191 l0 140 -118 27 c-64 15 -126 30 -137 33 -20 6 -20 1 -20 -182 0 -149 -3 -193 -15 -214 -16 -28 -88 -94 -95 -88 -2 3 1 22 6 44 6 22 13 146 16 275 3 129 9 243 15 253 11 21 46 23 54 2 4 -10 20 -15 52 -15 25 0 85 -8 133 -17 49 -9 92 -13 96 -9 4 4 9 216 11 472 l4 465 -28 -7 c-16 -3 -54 -15 -85 -25 -107 -37 -105 -22 9 91 48 47 97 98 109 113 29 34 58 34 80 0z m2814 3 c105 -28 222 -67 255 -87 67 -40 150 -151 181 -242 18 -50 43 -273 43 -377 0 -138 -26 -288 -62 -358 -40 -80 -69 -97 -150 -88 -85 9 -129 34 -266 154 -40 36 -75 62 -77 60 -9 -9 35 -121 80 -203 49 -90 52 -93 175 -191 119 -94 147 -122 153 -152 8 -41 -8 -68 -56 -96 -50 -30 -89 -33 -142 -10 -43 17 -93 12 -132 -13 -50 -33 -41 12 17 85 21 27 52 54 69 62 17 7 31 17 31 23 0 12 -19 44 -120 202 -42 66 -94 161 -115 210 -21 50 -49 103 -61 118 -53 64 -3 204 66 182 10 -3 67 -56 127 -118 121 -125 276 -252 298 -243 8 3 22 22 32 43 15 32 17 71 17 263 1 255 -9 332 -57 429 -58 118 -139 193 -351 324 -42 26 -64 56 -33 44 7 -3 42 -12 78 -21z m-1801 -6 c0 -11 -11 -19 -140 -103 -115 -75 -177 -148 -219 -257 -39 -101 -47 -151 -62 -382 -13 -206 -7 -311 26 -502 22 -122 20 -197 -7 -231 -40 -52 -174 -96 -193 -64 -4 6 2 17 14 25 28 20 52 107 54 201 1 43 -4 192 -12 331 -16 294 -7 443 35 582 32 106 69 164 149 238 70 63 141 103 260 144 91 31 95 32 95 18z m755 -13 c46 -26 85 -92 85 -147 0 -57 10 -64 77 -57 69 7 212 52 233 73 13 14 13 17 -7 34 -19 15 -31 40 -20 40 2 0 28 5 59 10 66 12 103 2 120 -34 9 -20 8 -30 -5 -49 -39 -59 -208 -135 -364 -162 -47 -8 -87 -15 -89 -15 -5 0 -12 -52 -30 -237 -13 -132 -16 -218 -11 -365 7 -197 20 -288 56 -392 26 -74 26 -112 1 -153 -42 -69 -132 -83 -212 -33 -54 34 -61 57 -20 65 15 3 39 9 55 13 l27 7 5 341 c4 256 10 381 25 500 11 87 20 180 20 206 l0 48 -107 0 c-128 0 -209 17 -301 64 -122 62 -136 98 -67 169 72 74 139 94 325 96 91 1 110 -2 145 -22z m-4075 -7 c10 -5 33 -33 50 -62 18 -29 49 -72 68 -96 19 -23 32 -45 29 -49 -4 -3 -45 11 -93 32 -83 35 -90 36 -150 28 -36 -5 -70 -6 -79 -1 -40 23 4 96 84 138 41 22 64 24 91 10z m862 -17 c33 -30 24 -78 -27 -128 -85 -85 -169 -125 -295 -140 -30 -3 -72 -8 -94 -11 -70 -11 -35 17 54 42 73 21 91 31 128 69 40 41 54 75 32 75 -19 0 -10 15 18 27 15 7 52 28 82 48 61 39 76 42 102 18z m372 -40 c31 -96 38 -185 46 -563 4 -212 8 -386 9 -388 1 -2 11 4 23 12 30 21 57 20 93 -4 17 -11 39 -20 51 -20 22 0 53 29 73 68 6 12 18 22 26 22 44 0 64 -144 86 -619 2 -56 -101 -103 -180 -81 -45 12 -153 72 -159 88 -7 22 118 28 223 10 19 -3 20 3 23 122 1 69 -1 163 -5 209 l-8 85 -75 14 c-41 7 -79 17 -85 22 -5 4 -27 11 -47 15 l-37 7 -3 -179 -3 -180 -30 -49 c-27 -43 -75 -77 -89 -63 -3 3 4 34 16 70 18 57 21 95 26 339 5 317 -12 752 -34 819 -8 25 -24 56 -37 69 -17 19 -22 34 -21 76 2 55 13 87 47 124 33 36 53 28 71 -25z m409 -273 c14 -37 30 -40 191 -44 95 -2 122 -5 129 -18 15 -24 2 -45 -43 -68 -32 -16 -51 -20 -86 -14 -24 3 -44 3 -44 0 0 -4 16 -21 36 -38 20 -17 53 -57 74 -87 20 -31 47 -65 59 -75 12 -11 21 -31 21 -48 0 -72 -51 -103 -155 -94 -94 8 -134 20 -185 57 -40 29 -41 31 -24 50 22 24 57 24 112 -1 43 -19 116 -29 128 -17 13 13 -8 58 -76 160 -63 95 -118 157 -139 157 -14 0 -73 -210 -80 -282 -8 -95 -27 -100 -38 -11 -14 119 -9 212 16 290 35 109 81 145 104 83z m4601 -65 c8 -33 20 -100 26 -150 6 -49 13 -97 15 -106 3 -8 12 -69 20 -135 8 -65 21 -175 29 -243 9 -68 18 -182 22 -253 l7 -129 34 -34 c38 -38 41 -57 13 -103 -14 -23 -41 -43 -85 -63 -77 -36 -107 -33 -154 15 l-32 33 26 17 c15 10 37 39 48 64 21 45 22 59 20 337 -1 160 -7 358 -13 440 -6 83 -14 196 -17 252 -8 150 10 177 41 58z m-6103 51 c42 -18 241 -56 290 -56 27 0 42 7 62 30 15 17 32 30 38 30 24 0 48 -22 57 -52 6 -18 14 -172 17 -341 l7 -309 -27 -28 -27 -28 45 -44 c80 -76 73 -143 -20 -185 -29 -14 -53 -26 -53 -28 0 -2 20 -13 44 -23 75 -34 141 -43 253 -36 85 6 107 4 114 -7 21 -34 0 -55 -89 -89 l-49 -19 -47 25 c-26 14 -75 30 -109 35 -34 5 -82 16 -106 24 -31 10 -40 11 -34 2 5 -6 25 -32 45 -57 60 -77 91 -137 84 -166 -14 -53 -153 -84 -201 -44 -13 11 -12 16 7 43 35 49 29 92 -22 177 -44 73 -134 170 -157 170 -22 0 -35 37 -22 63 13 26 49 56 67 57 7 0 39 -24 71 -54 33 -30 73 -62 89 -70 37 -19 46 -10 56 51 7 46 -18 116 -53 147 -9 8 -60 22 -115 31 -96 16 -146 34 -195 73 -33 26 -22 57 17 48 119 -28 307 -55 316 -46 14 14 19 474 5 517 -5 17 -18 34 -27 38 -9 4 -62 6 -117 6 -55 -1 -136 3 -179 9 -62 8 -82 7 -88 -3 -4 -6 -8 -102 -8 -212 1 -224 -11 -295 -50 -295 -16 0 -18 19 -25 226 -7 223 -5 275 15 345 15 54 60 71 121 45z m59 -176 c16 -11 59 -32 97 -46 92 -34 103 -46 77 -81 -12 -16 -41 -35 -65 -44 -24 -9 -45 -21 -46 -26 -4 -11 42 -52 106 -95 50 -34 57 -77 16 -104 -28 -18 -104 -16 -160 6 l-29 11 26 22 c14 12 34 34 43 49 16 26 16 29 -4 57 -32 45 -37 83 -12 105 12 11 21 24 21 30 0 7 -25 36 -55 66 -69 68 -76 94 -15 50z m4233 -346 c89 -30 122 -90 75 -134 -25 -23 -135 -60 -179 -60 -33 0 -40 25 -10 33 10 2 26 16 36 30 19 30 10 58 -32 94 -57 47 12 71 110 37z m-4700 -21 c8 -10 24 -46 36 -81 35 -109 79 -180 146 -234 76 -62 149 -97 217 -107 66 -9 78 -16 78 -46 0 -30 -9 -35 -73 -42 -38 -3 -57 -1 -72 11 -17 13 -18 17 -6 25 11 7 -1 17 -46 40 -34 16 -105 66 -158 111 -54 44 -102 80 -108 80 -7 0 -28 -18 -48 -40 -20 -22 -41 -40 -47 -40 -7 0 -11 23 -10 58 1 31 -2 95 -6 142 -8 79 -7 87 14 113 25 31 60 35 83 10z m354 -125 c4 -7 8 -49 8 -93 1 -44 5 -91 9 -104 11 -33 -8 -24 -36 19 -30 44 -51 48 -81 16 -24 -25 -57 -35 -57 -17 0 26 63 158 82 173 27 21 63 23 75 6z m1362 -238 c55 -28 66 -65 31 -100 -26 -26 -84 -26 -130 -1 -43 23 -45 43 -5 48 34 5 57 21 49 35 -6 10 2 38 11 38 3 0 23 -9 44 -20z m-1610 -135 c265 -190 301 -224 271 -260 -25 -30 -200 -71 -200 -46 0 5 7 25 15 44 21 51 20 55 -24 96 -52 47 -241 263 -241 274 0 17 33 -3 179 -108z m2254 84 c42 -22 67 -52 67 -81 0 -24 -7 -32 -35 -44 -40 -16 -93 -18 -115 -4 -13 9 -10 15 18 39 33 28 33 29 18 59 -9 17 -16 33 -16 37 0 9 40 5 63 -6z"/>
</g>
<g id="layer105" fill="#a28f78" stroke="none">
<path d="M9840 8014 c-701 -33 -1619 -137 -2430 -274 -349 -59 -480 -81 -520 -90 -25 -5 -108 -21 -185 -35 -77 -14 -160 -31 -185 -36 -25 -6 -171 -37 -325 -69 -154 -33 -320 -68 -370 -80 -49 -11 -272 -56 -495 -101 -590 -117 -759 -163 -1030 -281 -69 -30 -165 -65 -215 -77 -49 -13 -196 -52 -325 -87 l-236 -63 -614 -5 c-874 -8 -2060 -8 -2161 0 l-87 7 -6 91 c-10 134 -18 150 -79 180 -79 39 -180 52 -280 37 -98 -15 -177 -53 -187 -91 -13 -49 -25 -470 -25 -865 0 -410 13 -620 41 -677 10 -18 32 -33 71 -49 80 -30 284 -39 366 -15 78 23 95 49 103 162 3 49 7 97 8 107 3 21 -11 21 506 12 162 -2 525 -7 805 -10 281 -3 726 -8 990 -11 l480 -6 100 -38 c55 -20 197 -73 315 -117 118 -45 262 -102 320 -128 253 -112 459 -186 715 -256 1008 -277 2721 -494 4335 -549 959 -32 1805 7 2219 103 91 21 96 24 155 82 177 173 269 564 302 1290 9 193 -17 622 -51 865 -64 447 -171 755 -304 871 -25 23 -82 58 -126 79 -93 44 -222 70 -565 111 -76 9 -892 19 -1030 13z m1423 -877 c43 -53 44 -117 2 -177 -42 -61 -78 -80 -148 -80 -32 0 -57 3 -55 8 2 4 21 34 43 66 36 54 40 66 44 135 2 42 8 79 15 84 26 17 69 2 99 -36z m-3986 -34 c21 -32 21 -63 9 -946 -8 -574 -7 -607 30 -621 20 -8 17 -66 -4 -91 -61 -73 -113 -73 -302 -2 -65 25 -87 50 -53 59 10 3 63 2 118 -2 54 -5 105 -5 113 -2 11 4 13 17 8 56 -3 28 -6 114 -6 191 l0 140 -118 27 c-64 15 -126 30 -137 33 -20 6 -20 1 -20 -182 0 -149 -3 -193 -15 -214 -16 -28 -88 -94 -95 -88 -2 3 1 22 6 44 6 22 13 146 16 275 3 129 9 243 15 253 11 21 46 23 54 2 4 -10 20 -15 52 -15 25 0 85 -8 133 -17 49 -9 92 -13 96 -9 4 4 9 216 11 472 l4 465 -28 -7 c-16 -3 -54 -15 -85 -25 -107 -37 -105 -22 9 91 48 47 97 98 109 113 29 34 58 34 80 0z m2814 3 c105 -28 222 -67 255 -87 67 -40 150 -151 181 -242 18 -50 43 -273 43 -377 0 -138 -26 -288 -62 -358 -40 -80 -69 -97 -150 -88 -85 9 -129 34 -266 154 -40 36 -75 62 -77 60 -9 -9 35 -121 80 -203 49 -90 52 -93 175 -191 119 -94 147 -122 153 -152 8 -41 -8 -68 -56 -96 -50 -30 -89 -33 -142 -10 -43 17 -93 12 -132 -13 -50 -33 -41 12 17 85 21 27 52 54 69 62 17 7 31 17 31 23 0 12 -19 44 -120 202 -42 66 -94 161 -115 210 -21 50 -49 103 -61 118 -53 64 -3 204 66 182 10 -3 67 -56 127 -118 121 -125 276 -252 298 -243 8 3 22 22 32 43 15 32 17 71 17 263 1 255 -9 332 -57 429 -58 118 -139 193 -351 324 -42 26 -64 56 -33 44 7 -3 42 -12 78 -21z m-1801 -6 c0 -11 -11 -19 -140 -103 -115 -75 -177 -148 -219 -257 -39 -101 -47 -151 -62 -382 -13 -206 -7 -311 26 -502 22 -122 20 -197 -7 -231 -40 -52 -174 -96 -193 -64 -4 6 2 17 14 25 28 20 52 107 54 201 1 43 -4 192 -12 331 -16 294 -7 443 35 582 32 106 69 164 149 238 70 63 141 103 260 144 91 31 95 32 95 18z m755 -13 c46 -26 85 -92 85 -147 0 -57 10 -64 77 -57 69 7 212 52 233 73 13 14 13 17 -7 34 -41 33 -33 40 58 55 74 11 129 -38 96 -88 -39 -59 -208 -135 -364 -162 -47 -8 -87 -15 -89 -15 -5 0 -12 -52 -30 -237 -13 -132 -16 -218 -11 -365 7 -197 20 -288 56 -392 26 -74 26 -112 1 -153 -42 -69 -132 -83 -212 -33 -54 34 -61 57 -20 65 15 3 39 9 55 13 l27 7 5 341 c4 256 10 381 25 500 11 87 20 180 20 206 l0 48 -107 0 c-128 0 -209 17 -301 64 -122 62 -136 98 -67 169 72 74 139 94 325 96 91 1 110 -2 145 -22z m-4080 -3 c9 -4 37 -37 61 -73 24 -36 55 -81 70 -99 15 -18 24 -35 21 -39 -4 -3 -45 11 -93 32 -83 35 -90 36 -150 28 -36 -5 -70 -6 -79 -1 -40 23 4 96 84 138 39 20 59 24 86 14z m867 -21 c33 -30 24 -78 -27 -128 -85 -85 -169 -125 -295 -140 -30 -3 -72 -8 -94 -11 -70 -11 -35 17 54 42 73 21 91 31 128 69 40 41 54 75 32 75 -19 0 -10 15 18 27 15 7 52 28 82 48 61 39 76 42 102 18z m372 -40 c31 -96 38 -185 46 -563 4 -212 8 -386 9 -388 1 -2 11 4 23 12 30 21 57 20 93 -4 17 -11 39 -20 51 -20 22 0 53 29 73 68 6 12 18 22 26 22 39 0 60 -119 75 -430 4 -85 11 -165 15 -176 5 -16 -1 -30 -22 -54 -34 -38 -105 -56 -162 -40 -45 12 -153 72 -159 88 -7 22 118 28 223 10 19 -3 20 3 23 122 1 69 -1 163 -5 209 l-8 85 -75 14 c-41 7 -79 17 -85 22 -5 4 -27 11 -47 15 l-37 7 -3 -179 -3 -180 -30 -49 c-27 -43 -75 -77 -89 -63 -3 3 4 34 16 70 18 57 21 95 26 339 5 317 -12 752 -34 819 -8 25 -24 56 -37 69 -17 19 -22 34 -21 76 2 55 13 87 47 124 33 36 53 28 71 -25z m409 -273 c14 -37 30 -40 191 -44 95 -2 122 -5 129 -18 15 -24 2 -45 -43 -68 -32 -16 -51 -20 -86 -14 -24 3 -44 3 -44 0 0 -4 16 -21 36 -38 20 -17 53 -57 74 -87 20 -31 47 -65 59 -75 12 -11 21 -31 21 -48 0 -72 -51 -103 -155 -94 -94 8 -134 20 -185 57 -40 29 -41 31 -24 50 22 24 57 24 112 -1 43 -19 116 -29 128 -17 13 13 -8 58 -76 160 -63 95 -118 157 -139 157 -14 0 -73 -212 -78 -278 -6 -83 -10 -99 -24 -85 -13 13 -24 121 -23 218 1 160 91 320 127 225z m4601 -65 c8 -33 17 -82 21 -110 3 -27 12 -93 20 -145 42 -276 75 -584 75 -701 0 -52 3 -60 35 -92 19 -19 35 -43 35 -54 0 -40 -40 -84 -105 -114 -77 -36 -107 -33 -154 15 l-32 33 26 17 c15 10 37 39 48 64 21 45 22 59 20 337 -1 160 -7 358 -13 440 -6 83 -14 196 -17 252 -8 150 11 177 41 58z m-6103 51 c42 -18 241 -56 290 -56 27 0 42 7 62 30 15 17 32 30 38 30 24 0 48 -22 57 -52 6 -18 14 -172 17 -341 l7 -309 -27 -28 -27 -28 45 -44 c80 -76 73 -143 -20 -185 -29 -14 -53 -26 -53 -28 0 -2 20 -13 44 -23 75 -34 141 -43 253 -36 85 6 107 4 114 -7 21 -34 0 -55 -89 -89 l-49 -19 -47 25 c-26 14 -75 30 -109 35 -34 5 -82 16 -106 24 -31 10 -40 11 -34 2 5 -6 25 -32 45 -57 60 -77 91 -137 84 -166 -14 -53 -153 -84 -201 -44 -13 11 -12 16 7 43 35 49 29 92 -22 177 -44 73 -134 170 -157 170 -22 0 -35 37 -22 63 13 26 49 56 67 57 7 0 39 -24 71 -54 33 -30 73 -62 89 -70 37 -19 46 -10 56 51 7 46 -18 116 -53 147 -9 8 -60 22 -115 31 -96 16 -146 34 -195 73 -33 26 -22 57 17 48 119 -28 307 -55 316 -46 14 14 19 474 5 517 -5 17 -18 34 -27 38 -9 4 -62 6 -117 6 -55 -1 -136 3 -179 9 -62 8 -82 7 -88 -3 -4 -6 -8 -102 -7 -212 0 -222 -10 -288 -48 -293 -20 -3 -21 1 -28 223 -7 224 -5 276 15 346 15 54 60 71 121 45z m59 -176 c16 -11 59 -32 97 -46 92 -34 103 -46 77 -81 -12 -16 -41 -35 -65 -44 -24 -9 -45 -21 -46 -26 -4 -11 42 -52 106 -95 50 -34 57 -77 16 -104 -28 -18 -104 -16 -160 6 l-30 11 23 17 c21 17 62 70 62 83 0 3 -9 15 -19 26 -31 33 -37 85 -12 107 12 11 21 24 21 30 0 7 -25 36 -55 65 -69 67 -77 95 -15 51z m4233 -346 c89 -30 122 -90 75 -134 -25 -23 -135 -60 -179 -60 -33 0 -40 25 -10 33 10 2 26 16 36 30 19 30 10 58 -32 94 -57 47 12 71 110 37z m-4700 -21 c8 -10 24 -46 36 -81 35 -109 79 -180 146 -234 76 -62 149 -97 217 -107 66 -9 78 -16 78 -46 0 -30 -9 -35 -73 -42 -38 -3 -57 -1 -72 11 -17 13 -18 17 -6 25 11 7 -1 17 -46 40 -34 16 -105 66 -158 111 -54 44 -102 80 -108 80 -7 0 -28 -18 -48 -40 -20 -22 -41 -40 -47 -40 -7 0 -11 23 -10 58 1 31 -2 95 -6 142 -8 79 -7 87 14 113 25 31 60 35 83 10z m354 -125 c4 -7 8 -49 8 -93 1 -44 5 -91 9 -104 11 -33 -8 -24 -36 19 -30 44 -51 48 -81 16 -24 -25 -57 -35 -57 -17 0 26 63 158 82 173 27 21 63 23 75 6z m1362 -238 c55 -28 66 -65 31 -100 -26 -26 -84 -26 -130 -1 -43 23 -45 43 -5 48 34 5 57 21 49 35 -6 10 2 38 11 38 3 0 23 -9 44 -20z m-1610 -135 c265 -190 301 -224 271 -260 -25 -30 -200 -71 -200 -46 0 5 7 25 15 44 21 51 20 55 -24 96 -52 47 -241 263 -241 274 0 17 33 -3 179 -108z m2303 46 c34 -37 27 -68 -18 -87 -39 -16 -93 -18 -114 -4 -13 9 -10 15 18 39 33 29 34 29 17 60 -9 17 -13 36 -10 41 9 15 76 -16 107 -49z"/>
<path d="M8759 6976 c-49 -17 -104 -50 -104 -62 0 -5 20 -19 45 -31 36 -18 69 -24 165 -28 142 -7 181 1 177 36 -7 58 -12 67 -52 83 -49 20 -179 21 -231 2z"/>
</g>
<g id="layer106" fill="#dbb073" stroke="none">
<path d="M9840 8014 c-701 -33 -1619 -137 -2430 -274 -349 -59 -480 -81 -520 -90 -25 -5 -108 -21 -185 -35 -77 -14 -160 -31 -185 -36 -25 -6 -171 -37 -325 -69 -154 -33 -320 -68 -370 -80 -49 -11 -272 -56 -495 -101 -589 -116 -763 -164 -1025 -279 -76 -34 -185 -70 -300 -100 -99 -26 -262 -69 -362 -96 l-183 -49 -2 -392 c-2 -216 -3 -468 -3 -559 l0 -166 100 -37 c55 -21 197 -74 315 -118 118 -45 262 -102 320 -128 253 -112 459 -186 715 -256 1008 -277 2721 -494 4335 -549 959 -32 1805 7 2219 103 91 21 96 24 155 82 177 173 269 564 302 1290 9 193 -17 622 -51 865 -64 447 -171 755 -304 871 -25 23 -82 58 -126 79 -93 44 -222 70 -565 111 -76 9 -892 19 -1030 13z m1382 -835 c47 -22 73 -69 73 -129 0 -47 -5 -62 -32 -100 -18 -24 -47 -50 -64 -57 -33 -14 -143 -18 -137 -5 2 4 21 34 43 66 36 54 40 66 43 135 3 55 8 79 20 89 19 15 25 15 54 1z m-3948 -68 c29 -32 39 -154 27 -356 -6 -99 -13 -399 -16 -667 -6 -434 -5 -489 9 -517 9 -17 21 -31 26 -31 23 0 22 -51 -1 -84 -44 -65 -108 -82 -200 -52 -106 35 -174 65 -177 79 -4 21 23 25 133 17 54 -5 105 -5 113 -2 11 4 13 17 8 56 -3 28 -6 114 -6 191 l0 140 -118 27 c-64 14 -125 29 -134 33 -17 7 -18 -5 -18 -172 0 -99 -5 -193 -10 -210 -10 -27 -96 -110 -105 -101 -2 2 1 21 6 43 6 22 13 146 16 275 4 179 8 240 19 258 18 27 40 28 54 2 8 -14 17 -19 33 -15 12 3 70 -3 129 -13 98 -18 108 -18 114 -3 4 9 9 220 12 469 l4 453 -28 -7 c-16 -3 -57 -16 -91 -27 -35 -11 -66 -18 -69 -14 -10 10 40 70 101 123 30 26 67 65 81 86 30 43 61 49 88 19z m2848 -10 c198 -48 268 -87 339 -193 63 -92 79 -139 94 -266 30 -248 13 -492 -42 -600 -38 -76 -71 -95 -150 -88 -88 7 -130 31 -266 150 -37 32 -70 56 -73 53 -18 -18 104 -265 147 -300 15 -12 51 -41 81 -64 147 -116 168 -136 174 -158 11 -44 -4 -74 -53 -105 -53 -34 -93 -38 -148 -14 -43 17 -93 12 -132 -13 -50 -33 -41 12 17 85 21 27 52 54 69 62 17 7 31 17 31 23 0 12 -19 44 -120 202 -42 66 -94 161 -115 210 -21 50 -49 103 -61 118 -37 44 -30 121 16 167 38 38 58 27 185 -102 156 -159 258 -242 289 -234 41 10 51 68 51 306 0 245 -11 325 -58 419 -58 118 -139 193 -351 324 -46 28 -62 53 -28 43 9 -2 56 -14 104 -25z m-1832 1 c0 -15 -97 -92 -116 -92 -12 0 -113 -82 -150 -122 -48 -52 -96 -147 -118 -233 -42 -166 -46 -567 -7 -812 25 -153 24 -174 -10 -218 -41 -52 -175 -96 -194 -64 -4 6 2 17 14 25 28 20 52 107 54 201 1 43 -4 192 -12 331 -16 294 -7 443 35 582 32 106 69 164 149 238 70 63 141 103 260 144 89 30 95 31 95 20z m749 -7 c32 -16 77 -66 84 -92 3 -10 8 -39 12 -65 l6 -48 54 0 c60 0 210 43 238 68 18 16 18 17 -2 33 -30 25 -26 37 17 48 75 21 138 6 148 -36 9 -34 0 -48 -53 -87 -61 -45 -185 -94 -288 -113 -132 -25 -119 -6 -141 -204 -22 -197 -24 -480 -5 -624 7 -49 26 -130 42 -181 38 -117 32 -155 -33 -197 -58 -38 -117 -37 -180 3 -54 34 -61 57 -20 65 15 3 39 9 55 13 l27 7 5 341 c4 256 10 381 25 500 11 87 20 180 20 206 l0 48 -107 0 c-128 0 -209 17 -301 64 -83 42 -117 76 -108 109 12 49 106 123 186 148 48 14 289 10 319 -6z m-4059 -22 c17 -16 41 -44 53 -65 12 -20 37 -57 55 -83 19 -25 31 -49 28 -52 -3 -3 -44 11 -92 32 -83 35 -90 36 -150 28 -36 -5 -70 -6 -79 -1 -20 12 -19 48 3 75 20 26 121 93 139 93 7 0 26 -12 43 -27z m858 -5 c7 -7 12 -29 12 -50 0 -32 -7 -46 -45 -83 -85 -85 -169 -125 -295 -140 -30 -3 -72 -8 -94 -11 -70 -11 -35 17 54 42 73 21 91 31 128 69 40 41 54 75 32 75 -5 0 -10 5 -10 10 0 6 5 10 10 10 6 0 16 5 23 10 7 6 37 26 67 45 56 36 97 44 118 23z m364 -30 c31 -65 46 -246 51 -606 2 -188 7 -346 11 -349 3 -4 12 -1 18 5 18 18 64 14 105 -8 21 -11 43 -20 50 -20 6 0 24 20 40 45 31 49 65 59 83 25 16 -30 40 -278 40 -414 0 -66 5 -134 12 -152 9 -27 9 -37 -5 -58 -28 -42 -62 -58 -124 -59 -50 -1 -68 4 -132 39 -41 22 -76 44 -78 50 -5 14 55 34 101 34 20 0 58 -5 83 -11 37 -10 47 -9 54 2 10 16 10 239 0 338 l-6 65 -75 14 c-41 7 -79 17 -85 22 -5 4 -27 11 -47 15 l-37 7 -3 -185 -3 -185 -30 -44 c-28 -38 -77 -70 -89 -57 -3 3 4 34 16 70 18 57 21 95 26 339 5 317 -12 752 -34 819 -8 25 -24 56 -37 69 -17 19 -22 34 -21 76 2 58 13 87 52 129 32 33 42 31 64 -15z m406 -270 c7 -7 12 -20 12 -30 0 -10 6 -19 13 -19 6 -1 77 -4 157 -8 l145 -6 0 -30 c0 -40 -63 -78 -117 -70 -48 7 -56 -8 -18 -35 17 -12 43 -41 57 -64 14 -22 41 -58 59 -79 52 -58 45 -121 -18 -153 -25 -13 -48 -15 -103 -10 -94 8 -134 20 -185 57 -40 29 -41 31 -24 50 22 25 74 25 124 -1 41 -21 105 -27 115 -10 9 15 -19 71 -80 161 -67 100 -103 139 -125 139 -21 0 -78 -181 -86 -278 -10 -111 -36 -104 -45 13 -9 124 -3 199 20 272 32 97 67 133 99 101z m4591 -22 c14 -16 30 -101 60 -311 48 -334 71 -547 71 -658 l0 -98 35 -33 c63 -60 36 -128 -70 -177 -77 -36 -107 -33 -154 15 l-32 33 26 17 c15 10 37 39 48 64 21 45 22 59 20 337 -1 160 -7 358 -13 440 -6 83 -14 203 -17 268 -5 116 -1 135 26 103z m-6090 -5 c27 -15 211 -50 274 -52 51 -2 59 0 80 25 30 34 62 32 91 -7 20 -27 21 -44 27 -345 l5 -317 -23 -26 c-13 -14 -23 -29 -23 -34 0 -4 20 -30 45 -56 49 -52 55 -80 30 -128 -9 -18 -31 -36 -60 -47 -25 -11 -43 -23 -42 -29 2 -5 32 -20 68 -33 57 -20 77 -22 191 -19 130 5 148 0 148 -35 0 -21 -31 -43 -97 -68 l-49 -18 -59 29 c-33 16 -71 29 -85 29 -14 0 -49 6 -78 14 -29 7 -54 10 -56 7 -2 -3 18 -35 45 -71 59 -78 73 -111 65 -146 -14 -53 -153 -84 -201 -44 -13 11 -12 16 7 43 35 49 29 92 -22 177 -44 73 -134 170 -157 170 -7 0 -17 9 -23 20 -13 24 0 55 34 82 34 28 59 21 106 -28 46 -47 114 -89 129 -80 4 3 11 26 14 51 7 49 -17 117 -52 149 -9 8 -60 22 -115 31 -98 16 -136 30 -188 68 -31 23 -35 39 -14 56 10 8 24 7 55 -4 38 -13 111 -26 244 -42 41 -5 47 -3 48 13 1 11 3 120 5 244 3 231 -3 285 -34 294 -9 3 -84 7 -167 10 -82 2 -164 7 -182 11 l-31 7 -7 -66 c-4 -37 -5 -131 -1 -209 5 -121 3 -150 -11 -192 -13 -36 -24 -51 -39 -53 -20 -3 -21 2 -27 164 -10 246 -8 323 8 384 8 30 22 61 32 67 20 15 67 17 92 4z m98 -196 c37 -19 74 -35 81 -35 26 0 72 -31 72 -49 0 -23 -35 -55 -82 -75 -21 -8 -38 -19 -38 -24 0 -12 47 -53 97 -85 57 -36 66 -72 28 -105 -25 -21 -36 -24 -84 -19 -31 3 -69 10 -86 17 l-30 11 23 17 c21 17 62 70 62 83 0 3 -9 15 -19 26 -31 33 -37 85 -12 107 12 11 21 24 21 31 0 6 -25 35 -55 63 -47 45 -67 72 -51 72 3 0 35 -16 73 -35z m4196 -331 c89 -30 122 -90 75 -134 -25 -23 -135 -60 -179 -60 -33 0 -40 25 -10 33 10 2 26 16 36 30 19 30 10 58 -32 94 -57 47 12 71 110 37z m-4678 -56 c14 -29 25 -59 25 -66 0 -20 56 -126 86 -161 65 -78 217 -161 292 -161 41 0 62 -14 62 -41 0 -32 -29 -49 -84 -49 -58 0 -102 22 -77 39 11 7 -1 17 -46 40 -34 16 -105 66 -158 111 -54 44 -101 80 -105 80 -5 0 -17 -10 -27 -23 -19 -24 -62 -57 -75 -57 -4 0 -6 26 -6 58 1 31 -2 95 -6 142 -8 79 -7 87 14 113 15 18 31 27 51 27 26 0 33 -6 54 -52z m345 -98 c7 -14 8 -32 1 -56 -5 -19 -8 -41 -6 -47 9 -27 13 -108 5 -105 -5 2 -19 19 -32 38 -30 44 -51 48 -81 16 -24 -25 -57 -35 -57 -17 0 26 63 158 82 173 32 24 75 23 88 -2z m1350 -225 c76 -39 58 -125 -26 -125 -37 0 -124 36 -124 51 0 5 21 15 48 23 28 8 46 19 44 26 -4 18 6 40 18 40 6 0 24 -7 40 -15z m-1649 -107 c295 -208 342 -253 309 -294 -24 -28 -200 -70 -200 -47 0 4 7 27 16 50 15 39 15 44 0 68 -9 14 -20 25 -25 25 -5 0 -51 48 -102 106 -52 59 -104 118 -116 132 -22 24 -32 57 -15 50 4 -1 64 -42 133 -90z m2282 58 c44 -19 90 -65 83 -83 -3 -8 -6 -19 -6 -24 0 -28 -118 -50 -150 -29 -13 9 -10 15 18 39 33 29 34 29 17 60 -9 17 -13 36 -10 41 8 13 10 13 48 -4z"/>
<path d="M8756 6975 c-44 -15 -87 -45 -90 -60 0 -5 19 -20 44 -32 39 -20 59 -23 176 -23 145 0 163 3 158 28 -13 67 -14 70 -54 86 -50 20 -180 21 -234 1z"/>
<path d="M265 7126 c-78 -15 -147 -53 -155 -86 -13 -49 -25 -470 -25 -865 0 -410 13 -620 41 -677 23 -45 107 -70 255 -76 151 -5 226 11 257 56 20 28 32 100 31 187 -8 897 -17 1344 -28 1371 -15 39 -71 71 -158 89 -80 17 -136 17 -218 1z"/>
<path d="M2064 6705 c0 -60 1 -84 3 -52 2 32 2 81 0 110 -2 29 -3 3 -3 -58z"/>
<path d="M2604 6490 c0 -179 2 -252 3 -162 2 89 2 235 0 325 -1 89 -3 16 -3 -163z"/>
<path d="M2891 6429 c1 -211 5 -463 9 -559 4 -97 5 73 2 380 -2 305 -6 557 -8 559 -2 2 -3 -169 -3 -380z"/>
<path d="M3143 6765 c0 -27 2 -38 4 -22 2 15 2 37 0 50 -2 12 -4 0 -4 -28z"/>
<path d="M853 6735 c0 -38 2 -53 4 -32 2 20 2 52 0 70 -2 17 -4 1 -4 -38z"/>
<path d="M1175 6260 c0 -300 1 -422 2 -272 2 149 2 395 0 545 -1 149 -2 27 -2 -273z"/>
<path d="M1454 6560 c0 -135 2 -190 3 -122 2 67 2 177 0 245 -1 67 -3 12 -3 -123z"/>
<path d="M1732 6253 c1 -331 4 -500 8 -428 12 197 11 975 0 975 -7 0 -9 -188 -8 -547z"/>
<path d="M2303 6720 c0 -47 3 -132 7 -190 l7 -105 0 85 c0 47 -3 132 -7 190 l-7 105 0 -85z"/>
<path d="M3154 6465 c0 -104 2 -146 3 -92 2 54 2 139 0 190 -1 51 -3 7 -3 -98z"/>
<path d="M2074 6305 c0 -88 2 -123 3 -77 2 46 2 118 0 160 -1 42 -3 5 -3 -83z"/>
<path d="M2324 6300 c0 -63 1 -89 3 -57 2 31 2 83 0 115 -2 31 -3 5 -3 -58z"/>
<path d="M864 6300 c0 -58 1 -81 3 -52 2 28 2 76 0 105 -2 28 -3 5 -3 -53z"/>
<path d="M2334 6075 c0 -55 1 -76 3 -47 2 29 2 74 0 100 -2 26 -3 2 -3 -53z"/>
<path d="M2594 5925 c0 -126 2 -177 3 -112 2 65 2 168 0 230 -1 62 -3 9 -3 -118z"/>
<path d="M2084 5905 c0 -110 2 -156 3 -103 2 53 2 143 0 200 -1 57 -3 13 -3 -97z"/>
<path d="M1464 5905 c0 -104 2 -146 3 -92 2 54 2 139 0 190 -1 51 -3 7 -3 -98z"/>
<path d="M3164 5860 c0 -96 2 -136 3 -87 2 48 2 126 0 175 -1 48 -3 8 -3 -88z"/>
<path d="M2341 5849 c1 -57 5 -115 9 -129 4 -14 5 31 2 100 -2 69 -6 127 -8 129 -2 2 -4 -43 -3 -100z"/>
<path d="M873 5815 c0 -38 2 -53 4 -32 2 20 2 52 0 70 -2 17 -4 1 -4 -38z"/>
</g>
<g id="layer107" fill="#e7e4e0" stroke="none">
<path d="M11225 7178 c73 -37 95 -152 42 -221 -15 -20 -22 -34 -14 -31 26 10 57 80 57 129 0 69 -46 137 -92 134 -7 0 -4 -5 7 -11z"/>
<path d="M7235 7133 c52 -13 60 -33 75 -193 l9 -95 -3 111 c-2 61 -8 120 -15 131 -18 35 -41 53 -64 52 -20 -1 -21 -2 -2 -6z"/>
<path d="M8823 7113 c31 -2 83 -2 115 0 31 2 5 3 -58 3 -63 0 -89 -1 -57 -3z"/>
<path d="M10242 7066 c109 -37 153 -67 204 -134 71 -97 94 -158 110 -298 15 -121 14 -369 0 -474 -3 -19 1 -8 9 25 20 86 20 397 -1 505 -26 140 -118 294 -209 350 -36 22 -156 60 -190 60 -11 0 24 -15 77 -34z"/>
<path d="M4990 7065 c13 -14 25 -25 27 -25 2 0 -4 11 -13 25 -9 14 -21 25 -27 25 -6 0 0 -11 13 -25z"/>
<path d="M9089 7055 c17 -20 31 -41 31 -47 0 -6 3 -9 6 -5 9 9 -33 74 -52 81 -9 3 -2 -10 15 -29z"/>
<path d="M9500 7053 c54 -8 69 -14 86 -30 13 -13 16 -14 12 -3 -7 22 -48 40 -88 38 -26 0 -28 -2 -10 -5z"/>
<path d="M6205 7035 c27 -68 38 -180 45 -480 l7 -320 -2 340 c-2 287 -5 349 -19 400 -10 33 -22 65 -28 70 -8 7 -9 4 -3 -10z"/>
<path d="M9168 6893 c17 -2 47 -2 65 0 17 2 3 4 -33 4 -36 0 -50 -2 -32 -4z"/>
<path d="M8008 6873 c-24 -29 -71 -113 -65 -119 3 -3 17 18 32 48 15 29 34 61 42 71 9 9 14 17 11 17 -3 0 -12 -8 -20 -17z"/>
<path d="M8735 6870 c19 -8 113 -14 104 -6 -2 2 -31 6 -64 9 -36 3 -52 2 -40 -3z"/>
<path d="M8883 6863 c9 -2 25 -2 35 0 9 3 1 5 -18 5 -19 0 -27 -2 -17 -5z"/>
<path d="M7297 6713 c-8 -151 -9 -278 -2 -272 6 7 19 399 13 399 -3 0 -8 -57 -11 -127z"/>
<path d="M6608 6769 c6 -7 12 -21 12 -31 0 -10 4 -18 9 -18 15 0 -3 53 -20 58 -11 4 -12 2 -1 -9z"/>
<path d="M9133 6735 c0 -22 2 -30 4 -17 2 12 2 30 0 40 -3 9 -5 -1 -4 -23z"/>
<path d="M5070 6750 c19 -5 60 -15 90 -24 82 -23 85 -18 6 10 -39 13 -84 23 -100 23 l-31 -1 35 -8z"/>
<path d="M5552 6709 c22 -30 23 -39 29 -322 l6 -292 -1 300 c-1 309 -5 345 -42 345 -11 0 -9 -7 8 -31z"/>
<path d="M7915 6688 c-26 -89 -35 -174 -42 -400 -4 -155 -2 -243 7 -308 7 -50 14 -89 16 -87 1 1 -2 77 -7 167 -11 191 2 440 31 583 10 51 17 93 15 95 -2 2 -11 -20 -20 -50z"/>
<path d="M6703 6713 c15 -2 39 -2 55 0 15 2 2 4 -28 4 -30 0 -43 -2 -27 -4z"/>
<path d="M6873 6713 c9 -2 25 -2 35 0 9 3 1 5 -18 5 -19 0 -27 -2 -17 -5z"/>
<path d="M5311 6696 c7 -8 129 -10 136 -3 3 4 -27 7 -67 7 -40 0 -71 -2 -69 -4z"/>
<path d="M9110 6568 c-23 -211 -19 -544 10 -654 l10 -39 -6 40 c-12 97 -22 445 -14 505 11 82 24 270 19 270 -3 0 -11 -55 -19 -122z"/>
<path d="M6572 6556 c-19 -58 -32 -116 -30 -128 2 -16 9 -4 20 37 9 33 23 86 33 118 29 103 11 82 -23 -27z"/>
<path d="M11246 6535 c6 -76 22 -160 22 -115 0 14 -6 61 -13 105 l-14 80 5 -70z"/>
<path d="M5050 6472 c0 -62 4 -112 9 -112 8 0 5 209 -4 218 -3 3 -5 -45 -5 -106z"/>
<path d="M6655 6391 c17 -4 44 -15 62 -24 18 -9 38 -17 45 -17 7 0 -9 11 -37 25 -27 13 -61 24 -75 24 -23 -1 -22 -2 5 -8z"/>
<path d="M9985 6388 c11 -6 44 -34 74 -62 l54 -51 -32 42 c-39 51 -78 83 -100 83 -12 -1 -12 -3 4 -12z"/>
<path d="M11276 6335 c4 -54 16 -152 44 -360 8 -63 9 -58 5 45 -5 115 -25 273 -44 340 -9 30 -9 27 -5 -25z"/>
<path d="M10170 6205 c30 -30 57 -55 59 -55 3 0 -19 25 -49 55 -30 30 -57 55 -59 55 -3 0 19 -25 49 -55z"/>
<path d="M4725 6158 c14 -29 25 -59 25 -67 0 -21 70 -148 93 -168 l21 -18 -22 31 c-11 17 -37 68 -57 115 -57 132 -65 148 -75 154 -5 3 2 -18 15 -47z"/>
<path d="M10025 6135 c6 -33 81 -195 90 -195 3 0 -9 28 -26 63 -18 34 -40 85 -51 112 -10 28 -16 37 -13 20z"/>
<path d="M5408 6063 c12 -2 32 -2 45 0 12 2 2 4 -23 4 -25 0 -35 -2 -22 -4z"/>
<path d="M6900 6040 c6 -11 16 -20 22 -20 6 0 3 9 -7 20 -10 11 -20 20 -22 20 -2 0 1 -9 7 -20z"/>
<path d="M10362 6045 c9 -10 21 -16 28 -13 7 2 -1 10 -16 17 -27 12 -28 11 -12 -4z"/>
<path d="M5076 6023 c-2 -10 -8 -29 -11 -43 -5 -17 -4 -22 3 -15 11 11 27 75 18 75 -2 0 -7 -8 -10 -17z"/>
<path d="M6587 5985 c3 -33 9 -127 13 -210 l8 -150 -4 170 c-2 94 -9 188 -14 210 -8 34 -8 32 -3 -20z"/>
<path d="M7015 6020 c17 -4 41 -8 55 -8 22 0 22 1 -5 8 -16 4 -41 8 -55 8 -22 0 -22 -1 5 -8z"/>
<path d="M6260 5850 c0 -95 3 -170 6 -167 8 8 7 327 -1 335 -3 3 -5 -73 -5 -168z"/>
<path d="M7284 5795 c0 -115 2 -161 3 -102 2 59 2 154 0 210 -1 56 -3 8 -3 -108z"/>
<path d="M5577 5939 c23 -24 46 -55 52 -69 5 -14 10 -18 10 -10 1 25 -35 76 -71 100 -31 22 -31 21 9 -21z"/>
<path d="M6923 5780 c0 -146 1 -161 7 -90 4 47 4 126 0 175 -6 77 -7 65 -7 -85z"/>
<path d="M10120 5922 c0 -13 53 -70 92 -99 120 -90 190 -148 203 -166 8 -12 15 -17 15 -11 0 21 -34 55 -123 122 -50 38 -113 90 -139 116 -27 25 -48 42 -48 38z"/>
<path d="M7901 5855 c0 -16 6 -59 13 -95 12 -58 14 -60 14 -25 1 22 -5 65 -13 95 -10 40 -13 47 -14 25z"/>
<path d="M5360 5828 c41 -45 50 -53 50 -45 0 2 -21 23 -47 47 l-48 45 45 -47z"/>
<path d="M9131 5864 c-1 -6 10 -42 24 -80 13 -38 24 -60 24 -49 0 22 -47 147 -48 129z"/>
<path d="M11332 5763 c-2 -84 0 -93 19 -103 11 -6 29 -26 39 -43 13 -20 20 -26 20 -15 0 9 -16 37 -35 62 -30 40 -34 53 -38 118 -3 72 -3 71 -5 -19z"/>
<path d="M4666 5802 c5 -5 59 -43 119 -85 190 -132 299 -220 306 -247 6 -21 7 -22 8 -4 1 11 -5 27 -11 36 -28 34 -402 308 -422 308 -6 0 -6 -3 0 -8z"/>
<path d="M5098 5773 c12 -2 32 -2 45 0 12 2 2 4 -23 4 -25 0 -35 -2 -22 -4z"/>
<path d="M5605 5685 c22 -7 56 -13 75 -13 l35 1 -40 6 c-22 4 -56 10 -75 14 -34 6 -34 6 5 -8z"/>
<path d="M5785 5680 l-50 -7 50 0 c28 0 64 3 80 7 l30 8 -30 -1 c-16 0 -52 -3 -80 -7z"/>
<path d="M6600 5599 c0 -8 7 -24 15 -35 19 -25 19 -14 0 22 -8 16 -15 22 -15 13z"/>
<path d="M6450 5560 c14 -4 32 -8 40 -9 13 -1 13 0 0 9 -8 5 -26 9 -40 9 l-25 -1 25 -8z"/>
<path d="M5568 5523 c12 -17 29 -47 37 -65 8 -20 14 -26 15 -15 0 25 -24 68 -51 92 l-23 20 22 -32z"/>
</g>


</svg>