<!DOCTYPE svg PUBLIC "-//W3C//DTD SVG 20010904//EN" "http://www.w3.org/TR/2001/REC-SVG-20010904/DTD/svg10.dtd">
<svg version="1.0" xmlns="http://www.w3.org/2000/svg" width="1200px" height="1200px" viewBox="0 0 12000 12000" preserveAspectRatio="xMidYMid meet">
<g id="layer101" fill="#242423" stroke="none">
<path d="M4095 7933 c-151 -6 -529 -35 -700 -54 -1322 -143 -2293 -496 -2796 -1017 -78 -80 -247 -301 -333 -436 -16 -26 -20 -84 -36 -685 -10 -361 -21 -711 -24 -778 l-5 -122 61 -81 c67 -91 268 -298 368 -381 36 -30 67 -56 70 -59 14 -15 206 -153 284 -204 117 -76 331 -195 484 -267 68 -33 125 -59 127 -59 3 0 29 -11 60 -25 389 -179 1174 -390 1670 -450 28 -3 57 -8 65 -10 25 -7 457 -54 565 -61 55 -4 102 -8 105 -9 14 -8 452 -20 730 -20 464 0 908 24 1300 70 25 3 68 7 95 10 49 5 105 13 155 20 14 3 48 7 75 10 28 3 77 10 110 15 33 5 78 12 100 15 77 12 281 46 355 61 41 8 102 19 135 25 239 45 701 154 935 221 58 16 134 38 170 48 135 37 243 71 261 81 11 5 19 8 19 5 0 -3 91 27 203 65 111 39 213 74 227 79 14 4 86 31 160 60 74 28 153 58 175 67 22 8 54 21 70 28 17 7 86 37 155 65 236 99 568 256 805 383 115 61 383 214 404 230 15 13 31 23 87 54 98 54 529 354 629 437 28 23 79 64 115 91 36 26 76 59 90 72 31 29 58 51 133 111 108 85 115 144 27 233 -14 14 -59 60 -100 104 -170 178 -464 392 -835 610 -145 85 -476 257 -620 322 -38 18 -101 46 -140 64 -63 28 -170 73 -350 146 -407 166 -1073 375 -1595 502 -942 228 -1867 361 -2870 411 -165 8 -996 11 -1175 3z"/>
</g>
<g id="layer102" fill="#4a5e38" stroke="none">
<path d="M4095 7933 c-151 -6 -529 -35 -700 -54 -1322 -143 -2293 -496 -2796 -1017 -78 -80 -247 -301 -333 -436 -16 -26 -20 -84 -36 -685 -10 -361 -21 -711 -24 -778 l-5 -122 61 -81 c67 -91 268 -298 368 -381 36 -30 67 -56 70 -59 14 -15 206 -153 284 -204 117 -76 331 -195 484 -267 68 -33 125 -59 127 -59 3 0 29 -11 60 -25 389 -179 1174 -390 1670 -450 28 -3 57 -8 65 -10 25 -7 457 -54 565 -61 55 -4 102 -8 105 -9 14 -8 452 -20 730 -20 464 0 908 24 1300 70 25 3 68 7 95 10 49 5 105 13 155 20 14 3 48 7 75 10 28 3 77 10 110 15 33 5 78 12 100 15 77 12 281 46 355 61 41 8 102 19 135 25 239 45 701 154 935 221 58 16 134 38 170 48 135 37 243 71 261 81 11 5 19 8 19 5 0 -3 91 27 203 65 111 39 213 74 227 79 14 4 86 31 160 60 74 28 153 58 175 67 22 8 54 21 70 28 17 7 86 37 155 65 236 99 568 256 805 383 115 61 383 214 404 230 15 13 31 23 87 54 98 54 529 354 629 437 28 23 79 64 115 91 36 26 76 59 90 72 31 29 58 51 133 111 108 85 115 144 27 233 -14 14 -59 60 -100 104 -170 178 -464 392 -835 610 -145 85 -476 257 -620 322 -38 18 -101 46 -140 64 -63 28 -170 73 -350 146 -407 166 -1073 375 -1595 502 -942 228 -1867 361 -2870 411 -165 8 -996 11 -1175 3z m-2529 -1216 c20 -58 51 -229 63 -347 6 -58 11 -214 11 -346 l0 -241 85 -129 c47 -71 90 -130 95 -132 5 -2 6 -10 3 -18 -3 -9 -9 -12 -12 -7 -12 16 -112 94 -138 108 -15 8 -30 12 -35 9 -4 -3 -8 -54 -8 -115 0 -125 -14 -102 139 -229 57 -47 115 -95 130 -107 l26 -22 -26 -1 c-25 0 -190 40 -231 55 -16 7 -18 -1 -17 -81 0 -49 4 -129 8 -177 7 -76 11 -91 35 -116 47 -49 35 -70 -81 -147 -99 -64 -149 -77 -201 -50 -39 20 -50 57 -28 91 9 14 21 25 26 25 6 0 19 15 30 33 18 30 20 50 20 274 l0 241 -87 48 c-288 155 -292 157 -339 150 -82 -11 -94 43 -30 134 46 64 128 105 191 96 37 -6 54 -16 88 -52 47 -51 176 -159 181 -153 5 5 8 89 7 171 l-1 57 -129 86 c-71 46 -136 87 -145 91 -10 4 -23 -2 -35 -17 -26 -32 -50 -18 -69 41 -15 43 -14 45 18 107 73 142 126 141 283 -4 71 -67 88 -76 80 -43 -3 11 0 85 6 163 6 80 8 172 4 211 l-8 70 -37 -60 c-39 -64 -71 -98 -86 -93 -6 2 7 60 28 129 22 69 51 165 65 213 14 48 35 97 46 108 30 30 60 21 75 -24z m6565 -61 c150 -64 264 -190 313 -344 42 -136 60 -278 52 -422 -13 -252 -43 -395 -97 -471 -28 -40 -82 -62 -144 -57 -49 4 -68 13 -274 132 -29 17 -76 52 -103 77 -49 46 -50 46 -44 18 8 -42 101 -236 141 -294 19 -28 68 -75 108 -105 131 -99 238 -192 247 -214 8 -21 -14 -71 -35 -78 -5 -2 -20 -13 -32 -24 -47 -43 -77 -49 -139 -25 -31 11 -68 21 -82 21 -42 0 -113 -25 -127 -43 -28 -38 -34 -5 -9 46 32 64 98 117 144 117 26 0 25 9 -7 56 -14 21 -48 84 -74 139 -72 149 -201 396 -224 428 -11 15 -28 37 -37 49 -50 60 11 198 86 198 33 0 94 -56 143 -132 16 -24 53 -65 83 -93 30 -27 64 -59 75 -70 94 -89 194 -147 223 -129 45 29 52 61 58 280 6 189 5 221 -15 334 -28 156 -47 234 -71 279 -10 20 -60 77 -112 126 -75 73 -112 99 -188 137 -52 26 -110 52 -127 59 -18 6 -33 15 -33 18 0 12 103 29 160 26 37 -1 84 -15 141 -39z m-4690 13 c25 -39 31 -110 36 -473 l6 -390 45 -58 c24 -33 42 -62 38 -65 -3 -4 -23 6 -43 21 l-38 26 -3 -63 c-2 -55 1 -71 28 -121 36 -68 39 -122 10 -159 -11 -14 -20 -30 -20 -35 0 -16 61 -49 101 -55 64 -9 108 -33 115 -63 8 -33 -5 -56 -39 -68 -21 -8 -40 -3 -99 27 -40 19 -75 33 -78 30 -3 -2 -5 -44 -5 -92 0 -74 -3 -90 -22 -115 -13 -15 -39 -34 -58 -41 l-36 -12 73 -32 c40 -17 84 -38 98 -45 34 -19 70 -73 70 -107 0 -57 -81 -119 -157 -119 -49 0 -63 14 -63 64 0 38 -5 46 -92 128 -55 52 -137 114 -200 153 -107 67 -136 90 -125 102 11 10 235 -62 311 -99 58 -29 66 -16 82 139 7 70 14 134 14 140 0 18 -394 213 -430 213 -16 0 -32 -4 -35 -10 -10 -16 -42 -12 -49 6 -3 9 -6 37 -6 64 0 42 5 53 35 84 34 35 71 56 100 56 8 0 47 -29 88 -65 91 -80 268 -206 279 -199 15 10 8 59 -25 169 -18 57 -101 198 -162 274 -134 167 -152 214 -103 267 38 42 55 30 216 -154 35 -40 68 -72 74 -72 7 0 8 61 5 193 -8 256 -14 305 -44 340 -12 16 -23 39 -23 52 0 27 36 129 57 162 16 24 59 25 74 2z m3204 -18 c47 -22 89 -64 104 -104 6 -16 12 -60 12 -98 1 -38 4 -71 8 -73 12 -6 196 24 238 40 23 8 60 29 83 45 l41 30 -22 18 -22 18 44 21 c96 46 135 33 146 -46 6 -42 4 -45 -53 -100 -46 -45 -77 -65 -139 -89 -92 -36 -226 -72 -284 -76 -22 -1 -42 -5 -45 -8 -15 -14 -64 -511 -61 -609 3 -90 45 -351 81 -500 47 -194 20 -248 -132 -265 l-60 -7 -47 55 c-26 30 -47 60 -47 65 0 6 20 20 46 32 74 36 76 44 68 233 -7 164 2 332 41 797 9 96 15 181 15 188 0 9 -25 12 -89 12 -49 0 -124 7 -167 16 -79 16 -210 75 -270 120 -42 31 -68 87 -60 128 9 48 84 122 138 137 164 44 361 53 433 20z m-791 -3 c-2 -7 -21 -21 -42 -30 -20 -9 -55 -27 -77 -40 -22 -13 -81 -47 -131 -76 -156 -89 -246 -197 -308 -369 l-31 -88 1 -200 c1 -187 7 -268 35 -470 6 -44 13 -145 16 -225 l5 -145 -32 -47 c-28 -42 -38 -49 -108 -72 -87 -29 -107 -31 -145 -13 -31 14 -35 33 -9 41 10 4 32 20 48 37 l29 30 0 532 0 532 27 100 c29 103 61 161 137 247 44 50 168 141 236 175 70 35 198 72 258 75 33 2 61 6 64 10 7 13 33 9 27 -4z m-1333 -60 c18 -35 38 -85 46 -113 24 -88 51 -276 57 -405 9 -172 25 -271 47 -296 34 -36 25 -79 -27 -129 -58 -57 -100 -69 -249 -69 -108 0 -129 4 -210 31 -141 48 -174 63 -275 125 -52 32 -100 58 -106 58 -7 0 -16 10 -20 22 -15 49 60 54 138 9 18 -10 53 -30 78 -45 84 -49 255 -99 357 -104 116 -6 137 0 167 44 20 29 22 41 15 67 -4 18 -12 113 -17 212 -9 173 -11 185 -52 312 -42 131 -42 133 -69 127 -14 -4 -34 -11 -43 -15 -22 -12 -65 -11 -72 0 -6 10 114 175 152 209 14 12 31 22 38 22 8 0 28 -28 45 -62z m-1697 -58 c43 -11 89 -20 102 -20 43 0 33 -16 -44 -67 -42 -27 -129 -84 -192 -125 -63 -41 -142 -96 -174 -122 -74 -57 -206 -185 -206 -198 0 -5 18 -62 40 -125 27 -78 58 -144 95 -201 30 -47 55 -91 55 -98 0 -21 -50 -73 -97 -101 l-45 -26 -56 18 c-32 9 -83 33 -115 52 -32 19 -60 33 -62 31 -3 -2 7 -21 20 -41 40 -58 212 -150 333 -177 54 -12 102 -23 108 -25 7 -2 24 -19 39 -39 24 -32 25 -37 13 -63 -16 -34 -57 -55 -118 -61 -34 -3 -49 0 -59 12 -22 26 -48 19 -60 -15 -6 -18 -11 -71 -11 -119 0 -82 2 -91 40 -163 22 -41 40 -84 40 -95 0 -11 -20 -38 -45 -61 -62 -57 -88 -55 -167 12 -35 29 -79 65 -99 80 l-37 28 -23 -48 c-19 -37 -31 -50 -57 -57 -26 -7 -37 -6 -49 7 -15 14 -15 21 -2 59 17 52 17 199 0 283 -24 114 -61 229 -81 250 -11 12 -20 26 -20 32 0 16 50 122 61 128 15 10 85 -54 112 -103 14 -26 32 -74 40 -107 21 -83 40 -250 32 -285 -5 -21 -3 -31 7 -33 7 -2 34 -11 60 -19 26 -8 45 -12 43 -8 -3 5 -10 42 -15 84 -13 87 0 181 31 234 10 18 19 39 19 45 0 7 -36 44 -81 82 -97 84 -219 212 -219 230 0 7 -7 16 -16 19 -12 4 -15 2 -11 -9 4 -8 3 -17 -2 -19 -13 -8 -42 34 -48 68 -4 27 1 40 26 68 16 19 48 47 70 62 l40 28 31 -22 c17 -12 39 -38 49 -58 26 -51 113 -112 161 -112 37 0 29 31 -63 253 -6 15 -15 27 -19 27 -5 0 -31 -16 -59 -35 -50 -34 -54 -35 -145 -35 -93 0 -94 0 -94 24 0 33 66 89 130 109 53 17 110 64 110 91 0 9 -3 16 -8 16 -4 0 -16 15 -26 34 -53 99 -188 190 -305 207 -30 4 -60 14 -68 22 -12 12 -10 20 16 58 37 56 61 70 124 75 46 4 54 1 103 -36 71 -56 215 -207 239 -252 11 -21 24 -38 29 -38 5 0 91 85 193 189 227 234 236 239 387 201z m6839 -101 c25 -27 28 -38 25 -82 -3 -47 -6 -53 -43 -79 -57 -39 -119 -58 -205 -64 -80 -6 -82 -1 -11 38 38 21 71 86 78 154 3 30 11 58 17 63 35 28 99 14 139 -30z m-5835 9 c2 -15 -10 -87 -26 -160 -17 -73 -35 -182 -42 -243 -6 -60 -20 -134 -31 -164 -10 -31 -19 -70 -19 -88 0 -23 -5 -33 -15 -33 -13 0 -15 22 -15 138 0 75 5 178 11 227 7 50 11 121 10 158 -3 105 46 201 98 195 20 -2 27 -10 29 -30z m233 -119 c6 -12 9 -36 7 -54 -4 -33 -3 -33 47 -40 27 -4 88 -8 134 -8 77 -2 84 -4 92 -24 10 -28 -12 -53 -47 -53 -32 0 -30 -8 42 -158 44 -91 52 -116 44 -132 -16 -30 -43 -40 -105 -40 -60 0 -112 21 -175 70 -48 37 -144 83 -148 70 -2 -5 -11 -10 -19 -10 -12 0 -14 7 -9 33 3 17 10 75 16 127 11 93 33 187 51 223 13 24 56 22 70 -4z m5506 -231 c35 -52 63 -226 63 -394 0 -72 6 -169 14 -215 8 -46 17 -115 21 -154 15 -181 13 -174 61 -219 34 -31 43 -46 38 -60 -12 -31 -169 -99 -240 -104 -57 -4 -63 -2 -97 28 -46 40 -47 58 -5 62 65 6 91 84 109 328 17 232 10 643 -12 731 -5 20 -6 45 -3 54 6 16 8 16 17 -1 5 -11 20 -36 34 -56z m-5576 -458 c26 -14 24 -50 -7 -113 -33 -67 -67 -156 -68 -179 -2 -37 -21 -22 -28 22 -17 115 -5 178 48 247 28 37 28 37 55 23z m3087 -24 c63 -32 95 -68 95 -107 0 -57 -52 -82 -190 -92 -60 -5 -73 -3 -73 9 0 8 6 17 14 20 8 3 22 17 31 30 15 23 15 29 -1 72 -10 26 -26 57 -37 70 l-20 22 67 0 c51 0 78 -6 114 -24z m-2915 -78 c12 -6 51 -21 87 -34 63 -21 65 -23 65 -55 0 -33 -1 -34 -43 -34 -23 0 -42 -3 -42 -6 0 -12 107 -148 137 -173 37 -31 50 -73 30 -94 -13 -13 -25 -13 -99 1 -140 26 -162 32 -213 63 -28 16 -63 36 -80 44 -31 16 -44 45 -27 62 5 5 27 9 50 10 40 0 89 -26 165 -89 16 -13 40 -23 54 -23 l25 0 -31 35 c-17 19 -52 68 -79 108 -27 39 -59 81 -71 91 -23 21 -29 74 -9 94 15 15 53 15 81 0z m-315 -343 c64 -44 246 -114 362 -140 120 -27 263 -36 361 -21 53 8 58 7 69 -13 17 -32 5 -54 -49 -89 -53 -35 -80 -39 -114 -18 -12 7 -60 17 -107 21 -274 23 -304 29 -465 95 -51 20 -100 33 -133 34 -63 2 -76 16 -61 68 22 83 73 106 137 63z m337 -335 c52 -27 102 -50 110 -50 22 0 39 -43 31 -83 -9 -50 -45 -70 -136 -75 -70 -4 -78 -2 -105 21 -26 22 -28 27 -16 41 8 9 20 15 27 12 7 -3 16 -1 19 5 4 5 10 7 14 5 4 -3 13 -1 21 4 12 7 10 14 -11 37 -35 38 -65 83 -73 111 -11 34 12 28 119 -28z"/>
<path d="M6333 6510 c-46 -10 -75 -23 -110 -50 l-23 -18 39 -34 c66 -61 112 -72 264 -65 162 7 170 9 161 51 -13 64 -27 80 -84 100 -63 21 -185 29 -247 16z"/>
<path d="M4033 6142 c-22 -46 -53 -130 -53 -144 0 -4 12 -3 26 2 42 16 57 12 145 -44 98 -62 129 -75 129 -52 0 8 -4 17 -8 20 -5 3 -26 45 -46 93 -35 84 -40 90 -99 128 -34 22 -64 41 -67 42 -3 1 -15 -19 -27 -45z"/>
</g>
<g id="layer103" fill="#79e218" stroke="none">
<path d="M4095 7933 c-151 -6 -529 -35 -700 -54 -1322 -143 -2293 -496 -2796 -1017 -78 -80 -247 -301 -333 -436 -16 -26 -20 -84 -36 -685 -10 -361 -21 -711 -24 -778 l-5 -122 61 -81 c67 -91 268 -298 368 -381 36 -30 67 -56 70 -59 14 -15 206 -153 284 -204 117 -76 331 -195 484 -267 68 -33 125 -59 127 -59 3 0 29 -11 60 -25 389 -179 1174 -390 1670 -450 28 -3 57 -8 65 -10 25 -7 457 -54 565 -61 55 -4 102 -8 105 -9 14 -8 452 -20 730 -20 464 0 908 24 1300 70 25 3 68 7 95 10 49 5 105 13 155 20 14 3 48 7 75 10 28 3 77 10 110 15 33 5 78 12 100 15 77 12 281 46 355 61 41 8 102 19 135 25 239 45 701 154 935 221 58 16 134 38 170 48 135 37 243 71 261 81 11 5 19 8 19 5 0 -3 91 27 203 65 111 39 213 74 227 79 14 4 86 31 160 60 74 28 153 58 175 67 22 8 54 21 70 28 17 7 86 37 155 65 236 99 568 256 805 383 115 61 383 214 404 230 15 13 31 23 87 54 98 54 529 354 629 437 28 23 79 64 115 91 36 26 76 59 90 72 31 29 58 51 133 111 108 85 115 144 27 233 -14 14 -59 60 -100 104 -170 178 -464 392 -835 610 -145 85 -476 257 -620 322 -38 18 -101 46 -140 64 -63 28 -170 73 -350 146 -407 166 -1073 375 -1595 502 -942 228 -1867 361 -2870 411 -165 8 -996 11 -1175 3z m-2541 -1185 c21 -29 62 -220 75 -348 6 -58 11 -219 11 -359 l0 -253 88 -130 c48 -72 91 -136 97 -144 5 -7 6 -16 3 -20 -4 -4 -33 16 -65 43 -32 28 -72 57 -89 66 l-31 16 -7 -68 c-4 -38 -4 -92 0 -120 6 -49 10 -54 88 -119 112 -95 133 -113 170 -145 l31 -28 -51 5 c-28 4 -89 17 -135 31 -46 13 -85 22 -87 21 -2 -2 1 -79 7 -171 9 -160 11 -169 35 -194 38 -39 34 -73 -11 -108 -87 -66 -159 -106 -198 -111 -82 -9 -137 48 -101 103 9 14 21 25 26 25 6 0 19 15 30 33 18 30 20 50 20 274 l0 241 -87 48 c-288 155 -292 157 -339 150 -79 -10 -94 43 -35 129 41 61 112 100 181 100 l57 0 103 -97 c57 -54 109 -98 117 -98 10 0 13 25 13 110 l0 109 -129 86 c-71 46 -136 87 -145 91 -10 4 -23 -2 -35 -17 -26 -32 -50 -18 -69 41 -15 43 -14 45 18 107 36 69 80 113 113 113 35 -1 81 -30 165 -106 l78 -72 12 167 c6 91 8 193 4 225 l-7 60 -43 -67 c-36 -56 -74 -89 -87 -75 -2 1 14 59 36 128 21 69 50 165 64 214 25 82 58 136 84 136 5 0 17 -10 25 -22z m6539 -74 c173 -57 302 -190 355 -364 26 -84 51 -236 54 -325 8 -203 -42 -486 -100 -564 -50 -68 -144 -80 -233 -31 -30 16 -88 48 -130 70 -41 22 -103 63 -137 90 -34 28 -62 47 -62 42 0 -36 108 -259 154 -315 17 -22 85 -81 151 -131 152 -116 195 -157 195 -186 0 -28 -50 -77 -112 -110 l-46 -24 -57 22 c-31 12 -69 22 -83 22 -42 0 -113 -25 -127 -43 -28 -38 -34 -5 -9 46 32 64 98 117 144 117 26 0 25 9 -7 56 -14 21 -48 84 -74 139 -100 208 -206 404 -242 448 -28 34 -37 55 -37 82 0 73 50 145 101 145 36 0 67 -27 132 -113 123 -164 348 -340 395 -311 45 29 52 61 58 280 6 189 5 221 -15 334 -28 156 -47 234 -71 279 -10 20 -60 77 -112 126 -75 73 -112 99 -188 137 -52 26 -110 52 -127 59 -18 6 -33 15 -33 19 0 10 83 27 140 29 25 0 80 -11 123 -25z m-4648 -8 c25 -38 34 -181 35 -529 l0 -318 46 -65 c26 -36 44 -68 40 -71 -3 -3 -23 6 -43 21 l-38 26 -3 -59 c-2 -51 2 -68 28 -117 37 -70 41 -141 10 -169 -11 -10 -20 -24 -20 -30 0 -16 71 -50 135 -65 61 -14 85 -34 85 -71 0 -29 -31 -59 -60 -59 -9 0 -48 16 -88 35 l-72 34 -1 -37 c-1 -20 0 -61 1 -90 2 -65 -16 -97 -73 -122 -36 -16 -39 -20 -22 -26 140 -49 215 -109 215 -169 0 -63 -78 -125 -157 -125 -49 0 -63 14 -63 64 0 38 -5 46 -92 128 -55 52 -137 114 -200 153 -108 67 -136 90 -124 102 10 11 241 -60 316 -97 52 -26 60 -11 76 139 8 69 14 132 14 138 0 18 -394 213 -430 213 -16 0 -32 -4 -35 -10 -10 -16 -42 -12 -49 6 -10 25 -7 104 5 125 16 31 89 79 120 79 21 0 45 -16 91 -58 84 -78 265 -205 279 -197 18 12 1 92 -43 195 -49 117 -61 136 -148 245 -91 114 -134 188 -125 217 10 31 45 68 64 68 9 1 71 -57 139 -127 l123 -128 -5 195 c-7 257 -13 308 -43 343 -12 16 -23 39 -23 52 0 28 36 129 58 163 19 30 57 29 77 -2z m3233 -29 c55 -36 81 -89 89 -182 3 -41 10 -75 15 -75 4 0 54 7 111 15 101 16 160 37 206 75 22 19 23 22 7 39 -20 21 -11 32 47 56 81 34 127 9 127 -68 0 -103 -200 -215 -460 -258 l-65 -11 -28 -227 c-15 -124 -27 -273 -27 -331 0 -116 35 -363 75 -528 51 -214 26 -270 -131 -287 l-60 -7 -47 55 c-26 30 -47 60 -47 65 0 6 20 20 44 32 24 11 50 28 58 37 10 12 13 78 15 287 1 149 4 287 7 306 3 19 10 112 16 205 5 94 14 211 20 260 16 148 24 135 -79 135 -131 0 -229 24 -344 82 -115 59 -152 99 -152 162 0 32 8 51 34 83 67 83 171 113 387 110 135 -2 142 -3 182 -30z m-820 11 c-4 -11 -45 -36 -158 -96 -141 -74 -180 -100 -245 -166 -81 -81 -132 -171 -167 -291 -19 -69 -22 -102 -21 -235 1 -157 6 -220 45 -546 37 -318 18 -379 -130 -428 -87 -29 -107 -31 -145 -13 -31 14 -35 33 -9 41 10 4 32 20 48 37 l29 30 -1 247 c0 136 -1 356 -2 490 -3 393 27 516 167 674 42 47 165 139 230 173 59 30 204 75 246 76 22 0 51 5 65 9 37 12 52 11 48 -2z m-1327 -76 c51 -102 82 -261 94 -477 10 -175 24 -277 46 -311 32 -52 25 -90 -25 -139 -49 -48 -83 -61 -196 -71 -93 -8 -187 6 -309 47 -97 32 -127 46 -251 123 -41 25 -80 46 -86 46 -22 0 -28 42 -8 57 30 22 52 16 168 -46 150 -79 283 -121 408 -128 l97 -6 37 37 c35 35 36 37 29 93 -3 32 -10 130 -14 218 -8 150 -11 169 -51 292 -42 131 -42 133 -69 127 -14 -4 -34 -11 -43 -15 -22 -12 -65 -11 -72 0 -5 8 101 159 147 209 35 38 58 25 98 -56z m-1707 -39 c33 -9 77 -17 96 -17 69 -2 55 -13 -220 -191 -134 -86 -248 -176 -328 -258 l-64 -64 46 -129 c32 -89 61 -152 96 -203 27 -40 50 -81 50 -91 0 -27 -45 -76 -97 -107 l-45 -26 -56 18 c-32 9 -79 30 -105 47 -60 36 -74 33 -45 -9 37 -52 223 -147 342 -174 114 -25 149 -49 149 -97 0 -40 -23 -66 -72 -80 -53 -17 -92 -15 -120 5 -22 15 -25 15 -37 -2 -20 -27 -27 -78 -22 -159 4 -59 11 -83 41 -137 49 -87 48 -107 -8 -158 -62 -57 -88 -55 -167 12 -35 29 -79 65 -99 80 l-37 28 -23 -48 c-19 -37 -31 -50 -57 -57 -26 -7 -37 -6 -49 7 -15 14 -15 21 -2 59 17 52 17 199 0 283 -24 114 -61 229 -81 250 -11 12 -20 26 -20 32 0 20 52 124 65 129 18 7 93 -64 117 -109 32 -63 57 -180 64 -300 l7 -113 45 -17 c26 -9 48 -15 49 -13 2 2 -2 37 -7 79 -13 88 0 182 31 235 10 18 19 39 19 45 0 7 -38 45 -84 85 -86 75 -170 160 -218 222 -15 19 -25 28 -22 19 9 -29 -13 -30 -35 -3 -42 54 -16 113 79 179 39 27 43 28 66 14 13 -8 39 -37 57 -64 33 -51 122 -115 160 -115 16 0 18 5 12 42 -4 23 -21 74 -37 112 -16 39 -35 83 -41 99 -6 15 -15 27 -19 27 -5 0 -31 -16 -59 -35 -50 -34 -54 -35 -145 -35 -91 0 -94 1 -94 23 0 33 67 94 125 113 28 9 64 30 82 47 l32 30 -25 48 c-62 112 -190 202 -313 220 -80 11 -89 26 -52 81 33 48 72 72 134 81 34 5 43 1 112 -54 87 -71 175 -164 218 -233 l31 -49 180 186 c100 102 197 195 216 206 43 25 101 27 184 4z m1001 -76 c14 -22 13 -33 -11 -133 -14 -60 -34 -174 -44 -254 -11 -80 -26 -164 -34 -187 -8 -23 -18 -62 -21 -87 -5 -29 -12 -46 -21 -46 -18 0 -19 231 -3 365 7 50 11 120 10 157 -2 78 26 156 67 188 32 26 38 25 57 -3z m5830 -17 c39 -38 52 -88 33 -127 -28 -57 -177 -117 -275 -111 l-48 3 45 25 c54 31 88 87 97 162 3 29 13 61 22 71 24 28 85 17 126 -23z m-5603 -107 c12 -11 18 -30 18 -59 l0 -42 53 -6 c62 -7 155 -7 178 0 19 5 49 -20 49 -41 0 -22 -29 -45 -57 -45 -16 0 -23 -4 -20 -12 3 -7 21 -49 40 -93 19 -44 44 -96 56 -115 27 -45 26 -55 -4 -85 -20 -21 -34 -25 -85 -25 -65 0 -116 20 -180 70 -48 37 -144 83 -148 70 -2 -5 -11 -10 -19 -10 -12 0 -14 7 -9 33 3 17 10 75 16 127 17 151 51 247 89 250 3 0 13 -7 23 -17z m5494 -205 c62 -105 94 -265 94 -468 0 -69 7 -165 15 -215 8 -49 15 -117 15 -150 1 -105 13 -143 59 -185 22 -21 41 -42 41 -47 0 -39 -153 -115 -246 -121 -57 -4 -63 -2 -97 28 -46 40 -47 58 -5 62 66 6 90 80 109 338 13 171 5 667 -11 723 -6 22 -9 46 -5 54 6 18 12 14 31 -19z m-5548 -500 c20 -20 13 -70 -16 -123 -24 -44 -37 -77 -62 -165 -10 -38 -24 -30 -32 20 -15 98 -9 145 23 206 39 74 60 89 87 62z m3078 -17 c99 -47 129 -106 80 -156 -28 -28 -75 -41 -173 -48 -60 -5 -73 -3 -73 9 0 8 6 17 14 20 8 3 22 17 31 30 15 23 15 29 -1 72 -10 26 -26 57 -37 69 -18 20 -18 21 0 26 49 13 101 5 159 -22z m-2884 -91 c38 -16 76 -30 83 -30 7 0 23 -8 36 -19 21 -16 22 -22 11 -45 -10 -22 -18 -26 -52 -26 l-41 0 60 -77 c32 -43 73 -90 90 -105 34 -29 41 -67 16 -88 -12 -10 -32 -9 -97 3 -140 26 -162 32 -213 63 -28 16 -63 36 -80 44 -53 27 -38 80 23 80 27 0 122 -51 143 -76 16 -19 67 -46 79 -42 10 3 -85 143 -145 215 -39 46 -45 85 -18 115 21 23 22 23 105 -12z m-271 -368 c210 -105 464 -156 621 -125 85 17 108 11 108 -31 0 -30 -9 -41 -60 -75 -50 -34 -79 -38 -113 -17 -12 7 -60 17 -107 21 -274 23 -304 29 -465 95 -51 20 -100 33 -133 34 -64 2 -76 16 -61 71 11 38 62 100 77 93 5 -2 65 -31 133 -66z m289 -310 c96 -48 115 -61 121 -85 18 -69 -30 -109 -141 -115 -70 -4 -78 -2 -105 21 -25 21 -28 27 -16 41 7 9 19 16 27 16 7 0 25 5 40 10 l27 11 -25 27 c-34 37 -64 82 -72 110 -11 34 15 28 144 -36z"/>
<path d="M6333 6510 c-47 -10 -94 -32 -111 -53 -9 -11 -5 -20 21 -44 60 -58 89 -66 222 -65 66 1 139 5 163 8 42 6 43 7 37 38 -14 64 -28 80 -85 100 -62 21 -185 29 -247 16z"/>
<path d="M4043 6153 c-7 -16 -16 -35 -21 -43 -5 -8 -16 -36 -24 -62 l-15 -47 43 6 c39 5 50 1 131 -51 49 -31 96 -56 105 -56 13 0 7 21 -29 103 -43 99 -47 104 -105 140 -32 20 -63 37 -67 37 -3 0 -12 -12 -18 -27z"/>
</g>
<g id="layer104" fill="#c7cfbd" stroke="none">
<path d="M4200 7813 c-686 -26 -1437 -128 -1985 -269 -749 -193 -1344 -499 -1636 -841 -113 -132 -173 -206 -216 -263 l-41 -55 -16 -550 c-9 -302 -19 -644 -22 -760 l-6 -210 63 -67 c345 -362 686 -609 1151 -832 2467 -1186 6808 -713 9448 1029 381 251 788 580 806 652 10 36 -25 90 -120 186 -269 275 -749 593 -1266 840 -1344 642 -3169 1055 -5030 1137 -200 9 -932 11 -1130 3z m1460 -223 c1451 -68 2853 -334 3950 -753 36 -13 187 -77 335 -142 540 -235 907 -438 1255 -693 147 -108 360 -297 360 -319 0 -21 -272 -227 -475 -361 -71 -47 -164 -111 -206 -143 -319 -242 -1015 -599 -1649 -846 -1206 -470 -2505 -745 -3844 -814 -338 -17 -1104 -6 -1396 20 -787 72 -1422 205 -2004 423 -559 208 -908 384 -1207 610 -111 83 -117 90 -128 135 -19 84 -40 243 -50 393 -39 545 41 1341 146 1453 36 38 301 236 420 315 812 532 2551 811 4493 722z m-5139 -1782 c-6 -343 -14 -717 -17 -832 l-6 -210 -41 43 -40 44 6 301 c10 438 27 1038 33 1132 5 72 9 86 36 118 17 20 33 35 35 32 3 -3 0 -285 -6 -628z"/>
<path d="M1561 6733 c10 -20 19 -46 20 -58 0 -11 3 -14 6 -8 6 17 -15 79 -32 93 -8 7 -6 -3 6 -27z"/>
<path d="M3427 6685 c41 -29 45 -72 50 -480 l5 -390 39 -54 c22 -30 39 -51 39 -47 0 10 -48 84 -60 91 -6 4 -10 125 -10 356 0 378 -8 479 -43 517 -11 12 -25 22 -31 22 -6 0 -1 -7 11 -15z"/>
<path d="M8091 6675 c36 -12 77 -28 90 -34 l24 -12 -25 20 c-29 23 -104 51 -134 50 -12 0 9 -11 45 -24z"/>
<path d="M6521 6671 c104 -5 120 -9 157 -33 44 -30 71 -71 83 -128 7 -34 7 -34 8 -5 1 50 -33 111 -80 142 -40 27 -49 28 -163 29 l-121 2 116 -7z"/>
<path d="M4478 6650 c28 -12 79 -116 104 -215 16 -63 17 -65 12 -20 -8 73 -20 113 -57 180 -25 46 -38 61 -57 62 l-25 3 23 -10z"/>
<path d="M1594 6630 c2 -14 9 -50 15 -80 22 -120 31 -260 31 -506 l0 -257 61 -91 61 -91 74 3 c98 5 95 22 -3 22 l-78 0 -51 83 -51 82 -2 281 c-1 292 -16 462 -46 539 -8 22 -13 29 -11 15z"/>
<path d="M8291 6559 c125 -122 175 -245 209 -509 l9 -75 -5 100 c-5 127 -30 231 -79 328 -38 76 -119 172 -165 197 -13 7 1 -12 31 -41z"/>
<path d="M7222 6583 c15 -2 35 -14 43 -26 17 -24 20 -15 5 14 -8 13 -20 19 -43 18 -30 -2 -30 -2 -5 -6z"/>
<path d="M2664 6564 c-24 -6 -274 -248 -274 -266 0 -7 45 36 101 95 56 59 121 119 146 133 39 24 52 26 106 21 34 -3 73 -9 87 -12 16 -4 12 0 -10 10 -36 17 -119 27 -156 19z"/>
<path d="M3824 6458 c15 -23 15 -32 -9 -134 -37 -153 -68 -380 -50 -362 3 3 16 74 29 159 14 85 32 192 42 238 18 84 14 109 -15 119 -9 3 -8 -3 3 -20z"/>
<path d="M7055 6454 c-22 -13 -59 -29 -83 -36 -23 -6 -41 -13 -38 -15 10 -10 112 28 141 51 38 32 31 32 -20 0z"/>
<path d="M9610 6473 c8 -3 30 -20 48 -37 33 -31 33 -31 22 -5 -12 26 -48 50 -73 48 -7 0 -5 -3 3 -6z"/>
<path d="M1980 6435 c82 -69 200 -195 232 -246 l31 -51 68 68 c89 88 90 103 2 18 -58 -55 -69 -62 -78 -48 -67 110 -89 136 -176 204 -111 86 -142 108 -79 55z"/>
<path d="M5444 6377 c-109 -116 -169 -266 -179 -450 -7 -129 1 -115 14 25 6 59 20 136 32 170 29 87 103 214 157 271 26 26 44 47 40 47 -3 0 -32 -28 -64 -63z"/>
<path d="M6771 6413 c-1 -30 2 -33 27 -32 22 1 23 2 5 6 -14 3 -23 13 -26 31 -4 24 -4 24 -6 -5z"/>
<path d="M1464 6418 c-4 -7 -14 -24 -22 -38 -14 -24 -13 -24 3 -5 20 24 37 55 31 55 -3 0 -8 -6 -12 -12z"/>
<path d="M6245 6411 c41 -48 140 -77 210 -61 23 5 12 8 -50 14 -78 8 -120 22 -160 55 l-20 16 20 -24z"/>
<path d="M6843 6393 c9 -2 25 -2 35 0 9 3 1 5 -18 5 -19 0 -27 -2 -17 -5z"/>
<path d="M4603 6325 c3 -22 10 -103 16 -180 21 -259 31 -327 51 -360 11 -16 20 -24 20 -17 0 7 -7 24 -17 38 -12 18 -18 62 -24 162 -9 154 -35 381 -45 391 -3 3 -4 -12 -1 -34z"/>
<path d="M6568 6353 c12 -2 30 -2 40 0 9 3 -1 5 -23 4 -22 0 -30 -2 -17 -4z"/>
<path d="M4053 6332 c10 -11 17 -36 17 -60 l0 -42 41 0 c22 0 48 -4 57 -8 9 -5 44 -6 77 -3 l60 7 -95 7 c-52 5 -103 9 -112 10 -14 1 -18 10 -18 38 0 21 -7 45 -16 53 -22 22 -31 20 -11 -2z"/>
<path d="M6727 6003 c-15 -126 -27 -275 -27 -333 0 -141 46 -425 104 -655 3 -11 3 9 0 45 -3 36 -18 117 -34 180 -25 103 -60 327 -60 389 l0 23 148 -4 c134 -4 152 -6 207 -32 33 -15 71 -37 84 -49 l24 -22 -12 23 c-7 13 -40 37 -74 53 l-62 29 344 0 c285 0 342 2 332 13 -9 11 -101 13 -501 9 l-490 -5 0 36 c0 37 31 317 49 442 13 85 13 85 3 85 -4 0 -20 -102 -35 -227z"/>
<path d="M1277 6142 c17 -9 69 -50 115 -91 l83 -74 -90 91 c-67 69 -96 92 -115 92 -24 -1 -24 -1 7 -18z"/>
<path d="M3260 6040 c62 -66 114 -120 117 -120 6 0 -114 144 -163 197 -23 23 -47 43 -54 43 -7 0 38 -54 100 -120z"/>
<path d="M4270 6133 c1 -5 10 -24 21 -43 11 -19 18 -27 15 -17 -4 11 -9 30 -12 43 -6 22 -25 35 -24 17z"/>
<path d="M9540 6135 c0 -5 7 -16 16 -26 8 -9 24 -39 34 -65 23 -59 26 -46 4 18 -13 41 -54 95 -54 73z"/>
<path d="M4023 6118 c-6 -7 -13 -29 -16 -48 -6 -34 -5 -34 14 9 20 44 20 62 2 39z"/>
<path d="M2095 6020 c-15 -16 -41 -32 -56 -35 -16 -4 -32 -11 -35 -17 -6 -10 13 -6 61 12 24 9 83 70 69 70 -6 0 -23 -13 -39 -30z"/>
<path d="M4310 6046 c0 -18 64 -140 67 -129 3 7 -12 41 -31 75 -20 35 -36 59 -36 54z"/>
<path d="M2310 6007 c0 -15 73 -218 77 -214 2 2 -12 50 -32 107 -31 93 -45 125 -45 107z"/>
<path d="M4100 5996 c0 -12 152 -97 167 -94 12 2 2 12 -34 30 -28 15 -67 37 -85 48 -32 19 -48 25 -48 16z"/>
<path d="M9612 5975 c0 -11 6 -54 13 -95 l14 -75 -5 67 c-5 67 -22 144 -22 103z"/>
<path d="M8496 5843 c-11 -135 -15 -219 -10 -202 4 14 40 17 267 22 144 4 380 7 525 7 191 0 262 3 262 12 0 8 -129 9 -520 4 l-520 -7 7 120 c7 134 -1 165 -11 44z"/>
<path d="M3725 5848 c-4 -18 -9 -42 -11 -53 -4 -15 -3 -17 4 -5 11 17 25 90 18 90 -2 0 -7 -15 -11 -32z"/>
<path d="M3965 5800 c90 -50 285 -121 327 -119 13 0 -11 9 -52 20 -41 11 -133 49 -204 85 -152 76 -200 85 -71 14z"/>
<path d="M2074 5796 c10 -8 33 -37 50 -63 48 -73 177 -144 175 -95 0 9 -3 12 -5 5 -7 -16 -56 -1 -93 29 -17 13 -46 44 -66 70 -19 26 -46 52 -58 58 -21 10 -21 10 -3 -4z"/>
<path d="M2390 5773 c0 -6 22 -45 50 -87 l50 -76 194 0 c167 0 195 2 200 16 5 14 -16 15 -193 13 l-200 -2 -47 69 c-55 82 -54 80 -54 67z"/>
<path d="M5276 5670 c2 -47 14 -166 26 -265 12 -99 22 -231 23 -292 0 -62 3 -105 7 -95 10 26 9 188 -2 262 -5 36 -14 115 -20 175 -5 61 -13 127 -16 148 l-6 37 599 0 c580 0 733 4 733 21 0 4 -300 7 -667 6 l-668 -2 -6 45 c-4 25 -5 7 -3 -40z"/>
<path d="M3482 5671 c-2 -53 2 -72 25 -109 14 -26 29 -71 33 -101 l7 -56 2 51 c1 40 -6 65 -28 108 l-30 56 219 0 c143 0 228 4 244 11 60 28 74 -43 26 -130 -39 -70 -32 -77 10 -11 23 36 33 63 33 91 0 21 5 40 11 40 6 1 16 2 21 4 6 1 19 3 30 4 l20 2 -20 9 c-11 5 -149 6 -307 3 l-287 -6 -4 49 c-3 45 -4 44 -5 -15z"/>
<path d="M4497 5708 c-20 -14 -51 -23 -105 -28 l-77 -7 77 -2 c73 -1 80 1 110 29 38 34 35 39 -5 8z"/>
<path d="M1230 5713 c8 -4 60 -48 114 -100 55 -51 105 -93 112 -93 7 0 -6 18 -29 40 l-42 39 43 1 c30 0 42 4 42 15 0 12 -13 15 -60 15 -54 0 -64 3 -86 27 -33 35 -75 63 -94 62 -13 0 -13 -1 0 -6z"/>
<path d="M3008 5703 c13 -3 51 -30 85 -62 65 -61 265 -207 272 -199 3 2 -28 27 -68 56 -40 29 -90 68 -112 87 l-40 34 98 1 c63 0 96 4 92 10 -3 6 -52 10 -112 10 l-106 0 -38 35 c-27 24 -48 35 -67 34 -24 -2 -24 -2 -4 -6z"/>
<path d="M9853 5693 l-213 -3 0 -79 c0 -43 5 -103 10 -132 6 -30 15 -112 20 -183 10 -134 20 -165 62 -187 18 -9 16 -4 -10 27 -26 32 -32 47 -32 89 0 27 -7 111 -15 185 -9 74 -18 162 -21 196 l-7 61 348 6 c192 4 552 7 801 7 291 0 455 4 459 10 6 9 -801 11 -1402 3z"/>
<path d="M4640 5640 c-10 -6 63 -10 217 -10 144 0 234 4 238 10 8 13 -434 13 -455 0z"/>
<path d="M1636 5550 c-4 -37 -4 -91 0 -119 6 -47 11 -55 58 -92 l51 -41 -47 45 -48 45 0 105 c0 73 4 107 12 109 8 3 7 6 -4 10 -13 5 -17 -5 -22 -62z"/>
<path d="M8444 5514 c-9 -33 -23 -70 -32 -84 l-14 -25 19 23 c20 24 57 131 49 139 -3 3 -12 -21 -22 -53z"/>
<path d="M4193 5520 c38 -16 75 -30 82 -30 7 0 24 -9 39 -21 14 -11 26 -16 26 -11 0 15 -20 28 -90 57 -93 39 -142 44 -57 5z"/>
<path d="M2138 5525 c21 -37 37 -51 87 -79 28 -15 41 -21 30 -14 -10 7 -44 36 -74 63 -29 28 -49 41 -43 30z"/>
<path d="M1985 5464 c6 -5 26 -23 45 -39 l35 -30 -25 28 c-14 16 -34 33 -45 39 -11 6 -15 6 -10 2z"/>
<path d="M2300 5404 c0 -7 102 -55 111 -52 5 2 -18 15 -51 30 -33 14 -60 25 -60 22z"/>
<path d="M3517 5382 c-10 -10 -17 -23 -17 -28 0 -15 70 -51 113 -57 21 -3 52 -13 69 -21 31 -16 31 -16 14 3 -10 11 -36 23 -58 26 -50 9 -128 43 -128 55 0 6 4 10 9 10 5 0 11 7 15 15 7 20 3 19 -17 -3z"/>
<path d="M4276 5338 c60 -80 95 -118 108 -118 6 0 -8 19 -31 43 -22 23 -55 63 -72 90 -18 26 -37 47 -42 47 -6 0 11 -28 37 -62z"/>
<path d="M2485 5333 c87 -25 116 -30 103 -17 -7 7 -38 15 -68 18 -30 3 -46 3 -35 -1z"/>
<path d="M4100 5294 c25 -15 59 -40 77 -55 30 -26 70 -45 78 -37 6 6 -149 106 -175 113 -16 4 -9 -4 20 -21z"/>
<path d="M8000 5270 c23 -27 47 -53 53 -57 7 -4 -10 19 -37 50 -27 31 -51 57 -53 57 -3 0 14 -22 37 -50z"/>
<path d="M1790 5258 c49 -47 128 -109 116 -90 -3 6 -41 39 -84 73 -61 48 -68 52 -32 17z"/>
<path d="M3840 5195 c57 -34 137 -75 146 -75 17 0 -134 89 -161 95 -26 6 -24 3 15 -20z"/>
<path d="M1653 5150 c0 -30 2 -43 4 -27 2 15 2 39 0 55 -2 15 -4 2 -4 -28z"/>
<path d="M2134 5115 c3 -38 6 -91 6 -117 0 -27 3 -48 8 -48 9 0 -4 220 -14 229 -4 3 -4 -25 0 -64z"/>
<path d="M8120 5168 c8 -8 57 -48 109 -88 55 -43 99 -86 107 -104 12 -29 13 -30 14 -7 0 32 -82 112 -175 169 -38 24 -63 37 -55 30z"/>
<path d="M2403 5133 c-11 -28 -14 -61 -11 -123 4 -76 8 -92 41 -150 27 -48 37 -59 37 -41 0 13 -14 44 -31 70 -26 37 -33 59 -37 113 -4 58 -1 72 21 112 14 24 22 47 19 50 -13 13 -24 4 -39 -31z"/>
<path d="M3497 5112 c7 -69 11 -74 12 -15 1 28 -3 54 -8 57 -5 3 -6 -16 -4 -42z"/>
<path d="M3210 5046 c47 -18 96 -38 110 -45 24 -11 24 -11 6 3 -22 18 -168 76 -188 76 -7 -1 25 -16 72 -34z"/>
<path d="M4271 5036 c11 -11 195 -24 230 -16 26 6 11 8 -61 9 -52 1 -113 4 -135 8 -22 3 -37 3 -34 -1z"/>
<path d="M1663 4965 c0 -33 2 -45 4 -27 2 18 2 45 0 60 -2 15 -4 0 -4 -33z"/>
<path d="M3392 4965 c4 -4 42 -22 84 -41 85 -37 120 -64 140 -109 12 -27 13 -27 14 -7 0 34 -77 106 -141 129 -74 28 -105 37 -97 28z"/>
<path d="M1671 4879 c0 -16 9 -35 24 -49 14 -13 25 -18 25 -12 0 6 -9 17 -19 24 -10 8 -21 25 -24 38 l-4 25 -2 -26z"/>
<path d="M4250 4823 c56 -28 76 -44 78 -60 4 -25 22 -32 22 -9 0 28 -42 65 -93 81 -28 9 -59 18 -67 21 -8 3 19 -12 60 -33z"/>
</g>
<g id="layer105" fill="#fdb2b0" stroke="none">
<path d="M4270 7818 c-3 -3 -81 -8 -173 -12 -627 -24 -1340 -124 -1882 -262 -746 -192 -1344 -499 -1636 -841 -113 -132 -173 -206 -216 -263 l-41 -55 -6 -240 c-4 -132 -9 -294 -11 -360 -4 -117 -8 -242 -21 -700 l-6 -220 64 -67 c245 -257 456 -429 778 -633 124 -79 480 -258 595 -300 28 -10 55 -22 60 -26 17 -12 334 -125 470 -167 377 -117 928 -236 1284 -276 29 -4 83 -11 120 -16 36 -5 145 -16 241 -24 510 -45 958 -56 1425 -35 138 6 257 11 265 11 23 1 469 38 520 43 25 3 63 8 85 10 22 3 65 8 95 11 500 54 1258 201 1820 355 464 127 972 302 1400 482 409 172 888 415 1184 600 11 7 69 43 130 81 392 242 911 651 932 732 9 36 -31 97 -123 191 -338 343 -946 715 -1638 1003 -11 4 -45 19 -75 33 -30 13 -118 47 -195 76 -77 28 -151 57 -165 63 -58 24 -485 165 -645 213 -49 14 -110 32 -135 40 -282 86 -1044 263 -1325 308 -16 3 -95 17 -175 30 -329 57 -811 122 -1095 147 -66 6 -140 13 -165 15 -25 2 -79 7 -120 10 -41 3 -100 8 -130 10 -30 2 -98 7 -150 10 -52 3 -124 8 -160 11 -92 6 -1174 17 -1180 12z m1285 -223 c28 -2 113 -7 190 -10 117 -5 486 -32 680 -49 105 -10 346 -37 495 -57 85 -11 171 -22 190 -24 153 -17 668 -108 939 -166 101 -21 193 -41 205 -43 64 -12 454 -114 619 -162 395 -114 669 -213 1074 -389 403 -176 770 -365 981 -506 56 -38 107 -69 111 -69 5 0 11 -3 13 -8 2 -4 48 -39 103 -78 164 -117 405 -326 405 -351 0 -23 -329 -271 -516 -389 -44 -28 -117 -78 -161 -112 -320 -244 -1014 -600 -1653 -849 -1177 -458 -2541 -751 -3775 -811 -193 -9 -1037 -9 -1220 0 -656 33 -1373 158 -1960 340 -126 39 -488 171 -570 208 -22 10 -74 32 -115 48 -265 106 -591 288 -811 454 -132 99 -125 85 -154 283 -51 348 -41 992 20 1350 34 195 68 311 102 348 28 30 270 213 398 302 179 123 522 278 835 376 100 32 367 107 410 115 14 3 86 19 160 35 526 117 1217 194 1955 219 218 7 928 4 1050 -5z m-5029 -1512 c-15 -802 -26 -1307 -30 -1310 -2 -2 -20 15 -41 38 l-38 43 6 300 c10 438 27 1038 33 1132 5 71 9 86 36 118 16 20 32 36 35 36 3 0 2 -161 -1 -357z"/>
<path d="M10063 5693 c-233 -2 -423 -7 -423 -12 0 -11 1602 -1 1614 10 6 5 -152 8 -380 7 -214 -2 -579 -4 -811 -5z"/>
<path d="M8798 5683 c-222 -3 -308 -6 -308 -15 0 -8 30 -9 107 -5 58 4 294 7 525 7 272 0 418 3 418 10 0 6 -78 9 -217 8 -120 -2 -356 -4 -525 -5z"/>
<path d="M7080 5672 c-221 -1 -358 -6 -364 -12 -7 -7 152 -10 487 -10 306 1 497 5 497 11 0 5 -15 10 -32 10 -87 3 -263 4 -588 1z"/>
<path d="M7985 5670 c4 -6 82 -10 201 -10 123 0 194 4 194 10 0 6 -74 10 -201 10 -131 0 -198 -3 -194 -10z"/>
<path d="M5375 5650 c-125 -9 926 -9 1105 0 87 4 -85 6 -435 6 -319 0 -620 -3 -670 -6z"/>
<path d="M4030 5639 c-31 -6 -30 -6 18 -8 28 0 52 1 52 3 0 8 -37 11 -70 5z"/>
<path d="M4640 5640 c-18 -12 326 -12 410 0 36 5 -21 8 -170 8 -131 1 -231 -2 -240 -8z"/>
<path d="M2630 5630 c-86 -3 -140 -8 -132 -14 18 -11 381 4 388 16 4 6 -18 8 -52 6 -33 -2 -124 -5 -204 -8z"/>
<path d="M3125 5630 c3 -6 52 -10 111 -10 68 0 103 4 99 10 -3 6 -52 10 -111 10 -68 0 -103 -4 -99 -10z"/>
<path d="M3490 5630 c0 -11 118 -11 335 -1 135 7 131 8 -97 9 -153 1 -238 -2 -238 -8z"/>
<path d="M1760 5620 c0 -6 32 -10 75 -10 43 0 75 4 75 10 0 6 -32 10 -75 10 -43 0 -75 -4 -75 -10z"/>
<path d="M730 5610 c0 -6 50 -10 129 -10 76 0 132 4 136 10 4 6 -42 10 -129 10 -84 0 -136 -4 -136 -10z"/>
<path d="M1370 5610 c20 -13 100 -13 100 0 0 6 -26 10 -57 10 -41 0 -54 -3 -43 -10z"/>
</g>


</svg>